<?xml version="1.0" encoding="utf-8"?>
<svg xmlns="http://www.w3.org/2000/svg" xmlns:xlink="http://www.w3.org/1999/xlink" width="191.523" height="43.862" viewBox="0 0 191.523 43.862">
  <defs>
    <clipPath id="clip-path">
      <rect id="Rectangle_5220" width="0.551" height="33.025" fill="#0074c2" />
    </clipPath>
    <clipPath id="clip-path-2">
      <path id="Path_4477" d="M246.038,375.877h1.5a2.574,2.574,0,0,0,1.9-.49,3.7,3.7,0,0,0,.428-2.2,3.173,3.173,0,0,0-.447-2.034,2.239,2.239,0,0,0-1.66-.479h-1.718Zm0,5.524h1.548v.3h-4.439v-.3H244.7V370.674h-1.548v-.3h4.707a3.64,3.64,0,0,1,2.508.862,2.824,2.824,0,0,1,.976,2.223,2.387,2.387,0,0,1-.913,2.03,4.4,4.4,0,0,1-2.685.692h-1.7Z" transform="translate(-243.147 -370.373)" fill="#0074c2" clip-rule="evenodd" />
    </clipPath>
    <clipPath id="clip-path-3">
      <path id="Path_4478" d="M269.159,375.183v-4.51h-1.548v-.3h4.438v.3h-1.565V381.4h1.565v.3h-4.438v-.3h1.548v-5.913H264.89V381.4h1.549v.3H262v-.3h1.55V370.673H262v-.3h4.44v.3H264.89v4.51Z" transform="translate(-261.999 -370.371)" fill="#0074c2" clip-rule="evenodd" />
    </clipPath>
    <clipPath id="clip-path-4">
      <path id="Path_4479" d="M288.035,381.4h1.548v.3h-4.437v-.3h1.547V370.674h-1.547v-.3h4.437v.3h-1.548Z" transform="translate(-285.147 -370.373)" fill="#0074c2" clip-rule="evenodd" />
    </clipPath>
    <clipPath id="clip-path-5">
      <path id="Path_4480" d="M300.916,370.371v.3h-1.548V381.4h1.4a2.889,2.889,0,0,0,2.445-1.143,7.751,7.751,0,0,0,1.187-3.636h.177V381.7h-8.1v-.3h1.548V370.674h-1.548v-.3Z" transform="translate(-296.478 -370.371)" fill="#0074c2" clip-rule="evenodd" />
    </clipPath>
    <clipPath id="clip-path-6">
      <path id="Path_4481" d="M318.8,381.4h1.546v.3h-4.437v-.3h1.548V370.674h-1.548v-.3h4.437v.3H318.8Z" transform="translate(-315.908 -370.373)" fill="#0074c2" clip-rule="evenodd" />
    </clipPath>
    <clipPath id="clip-path-7">
      <path id="Path_4482" d="M330.132,375.877h1.5a2.574,2.574,0,0,0,1.9-.49,3.706,3.706,0,0,0,.428-2.2,3.168,3.168,0,0,0-.448-2.034,2.236,2.236,0,0,0-1.659-.479h-1.719Zm0,5.524h1.549v.3h-4.439v-.3h1.549V370.674h-1.549v-.3h4.706a3.639,3.639,0,0,1,2.508.862,2.826,2.826,0,0,1,.976,2.223,2.385,2.385,0,0,1-.914,2.03,4.392,4.392,0,0,1-2.684.692h-1.7Z" transform="translate(-327.242 -370.373)" fill="#0074c2" clip-rule="evenodd" />
    </clipPath>
    <clipPath id="clip-path-8">
      <path id="Path_4483" d="M359.395,381.7,356.5,370.558v9.17a2.288,2.288,0,0,0,.276,1.283,1.016,1.016,0,0,0,.891.389h.505v.3h-3.628v-.3h.271a1.323,1.323,0,0,0,1.042-.389,1.742,1.742,0,0,0,.341-1.175v-8.112a1.04,1.04,0,0,0-.288-.81,1.5,1.5,0,0,0-.963-.241h-.4v-.3h3.166l2.309,8.861,2.42-8.861h2.991v.3H363.9V381.4h1.538v.3h-4.357v-.3h1.557l.061-10.841L359.652,381.7Z" transform="translate(-354.548 -370.371)" fill="#0074c2" clip-rule="evenodd" />
    </clipPath>
    <clipPath id="clip-path-9">
      <path id="Path_4484" d="M384.089,381.4a1.9,1.9,0,0,0,1.121-.362,2.932,2.932,0,0,0,.867-1.063,3.9,3.9,0,0,0,.338-1.247,25.344,25.344,0,0,0,.109-2.879,21.293,21.293,0,0,0-.155-3.228,3.344,3.344,0,0,0-.529-1.351,2.355,2.355,0,0,0-.8-.726,1.933,1.933,0,0,0-.95-.262,1.966,1.966,0,0,0-.968.262,2.356,2.356,0,0,0-.8.726,3.68,3.68,0,0,0-.537,1.379,11.543,11.543,0,0,0-.108,1.218c-.026.531-.037,1.191-.037,1.981v.365a22.587,22.587,0,0,0,.1,2.585,3.353,3.353,0,0,0,.346,1.176,2.885,2.885,0,0,0,.875,1.059,1.918,1.918,0,0,0,1.131.366m0-11.4a2.819,2.819,0,0,1,1.288.314,3.558,3.558,0,0,1,1.117.915,6.424,6.424,0,0,1,1.152,2.133,8.573,8.573,0,0,1,.4,2.661,7.955,7.955,0,0,1-.309,2.3,6.084,6.084,0,0,1-.939,1.883,3.89,3.89,0,0,1-1.241,1.1,2.967,2.967,0,0,1-1.466.4,3,3,0,0,1-1.462-.4,3.959,3.959,0,0,1-1.261-1.1,6.047,6.047,0,0,1-.937-1.876,7.515,7.515,0,0,1-.233-1.093,8.692,8.692,0,0,1-.077-1.211,9.1,9.1,0,0,1,.185-1.848,7.557,7.557,0,0,1,.546-1.67,5.052,5.052,0,0,1,1.416-1.855,2.925,2.925,0,0,1,1.823-.65" transform="translate(-380.119 -369.998)" fill="#0074c2" clip-rule="evenodd" />
    </clipPath>
    <clipPath id="clip-path-10">
      <path id="Path_4485" d="M403.779,370.674h-1.688v5.141h1.468a2.3,2.3,0,0,0,1.807-.544,3.6,3.6,0,0,0,.452-2.162,3.061,3.061,0,0,0-.44-1.911A2.013,2.013,0,0,0,403.779,370.674ZM399.2,381.7v-.3h1.547V370.674H399.2v-.3h5.1a3.152,3.152,0,0,1,2.2.707,2.562,2.562,0,0,1,.78,2,2.631,2.631,0,0,1-.78,2,3.592,3.592,0,0,1-2.215.887,3.236,3.236,0,0,1,.95.131,2.786,2.786,0,0,1,.761.367,2.165,2.165,0,0,1,.833,1.255,2.266,2.266,0,0,1,.055.235c.009.067.029.186.055.358a7.708,7.708,0,0,1,.039.795v.793a1.915,1.915,0,0,0,.013.276c.011.078.021.139.029.182a1.383,1.383,0,0,0,.035.152,1.713,1.713,0,0,0,.391.811.961.961,0,0,0,.69.234h.146a1.444,1.444,0,0,1,.174-.037.761.761,0,0,0,.131-.031,2.189,2.189,0,0,0,.217-.085v.3a1.817,1.817,0,0,1-.435.144c-.085.017-.164.03-.239.041a2.033,2.033,0,0,1-.257.016,2.072,2.072,0,0,1-1.8-.706,4.842,4.842,0,0,1-.515-2.669,3.314,3.314,0,0,0-.391-1.945,1.732,1.732,0,0,0-1.4-.479h-1.688v5.3h1.547v.3Z" transform="translate(-399.201 -370.371)" fill="#0074c2" clip-rule="evenodd" />
    </clipPath>
    <clipPath id="clip-path-11">
      <path id="Path_4486" d="M424.68,370.674h-1.687v5.141h1.469a2.305,2.305,0,0,0,1.805-.544,3.613,3.613,0,0,0,.453-2.162,3.065,3.065,0,0,0-.442-1.911A2.008,2.008,0,0,0,424.68,370.674ZM420.1,381.7v-.3h1.547V370.674H420.1v-.3h5.1a3.165,3.165,0,0,1,2.2.707,2.577,2.577,0,0,1,.777,2,2.647,2.647,0,0,1-.777,2,3.6,3.6,0,0,1-2.217.887,3.214,3.214,0,0,1,.947.131,2.705,2.705,0,0,1,.763.367,2.172,2.172,0,0,1,.835,1.255c.025.09.043.167.055.235s.029.186.053.358c.023.234.038.5.038.795v.793a2.2,2.2,0,0,0,.016.276c.009.078.018.139.026.182s.023.1.035.152a1.735,1.735,0,0,0,.391.811.967.967,0,0,0,.691.234h.151a1.209,1.209,0,0,1,.171-.037.7.7,0,0,0,.128-.031,2.255,2.255,0,0,0,.22-.085v.3a1.87,1.87,0,0,1-.436.144c-.084.017-.163.03-.24.041a2.568,2.568,0,0,1-2.053-.69,4.866,4.866,0,0,1-.513-2.669,3.307,3.307,0,0,0-.393-1.945,1.732,1.732,0,0,0-1.4-.479h-1.687v5.3h1.548v.3Z" transform="translate(-420.102 -370.371)" fill="#0074c2" clip-rule="evenodd" />
    </clipPath>
    <clipPath id="clip-path-12">
      <path id="Path_4487" d="M443.892,381.4h1.548v.3H441v-.3h1.547V370.674H441v-.3h4.438v.3h-1.548Z" transform="translate(-441.002 -370.373)" fill="#0074c2" clip-rule="evenodd" />
    </clipPath>
    <clipPath id="clip-path-13">
      <rect id="Rectangle_5235" width="6.839" height="11.705" fill="#0074c2" />
    </clipPath>
    <clipPath id="clip-path-14">
      <rect id="Rectangle_5234" width="7.269" height="11.769" fill="#0074c2" />
    </clipPath>
    <clipPath id="clip-path-15">
      <path id="Path_4488" d="M452.919,381.585V376.76h.238a7.054,7.054,0,0,0,1.255,3.425,2.875,2.875,0,0,0,2.351,1.215,2.122,2.122,0,0,0,1.565-.631,2.161,2.161,0,0,0,.63-1.587,2.23,2.23,0,0,0-.456-1.39,5.844,5.844,0,0,0-1.695-1.334q-.371-.235-1.11-.616a8.567,8.567,0,0,1-1.758-1.121,2.52,2.52,0,0,1-.547-.828,2.625,2.625,0,0,1-.2-.992,2.975,2.975,0,0,1,.746-2.087,2.473,2.473,0,0,1,1.914-.816,2.678,2.678,0,0,1,1.365.349,4.386,4.386,0,0,1,1.217,1.152l.878-1.5h.094v4.349h-.239a6.788,6.788,0,0,0-1.22-3A2.548,2.548,0,0,0,455.9,370.3a2.262,2.262,0,0,0-1.527.522,1.663,1.663,0,0,0-.605,1.316q0,1,2.434,2.326l.734.4a7.372,7.372,0,0,1,2.193,1.671,2.943,2.943,0,0,1,.629,1.872,3.347,3.347,0,0,1-.868,2.364,2.942,2.942,0,0,1-3.672.514,4.3,4.3,0,0,1-1.283-1.25l-.84,1.555Z" transform="translate(-452.919 -369.998)" fill="#0074c2" clip-rule="evenodd" />
    </clipPath>
    <clipPath id="clip-path-17">
      <path id="Path_4489" d="M246.038,414.946h1.548v.3h-4.44v-.3H244.7V404.219h-1.549v-.3h4.44v.3h-1.548Z" transform="translate(-243.147 -403.917)" fill="#0074c2" clip-rule="evenodd" />
    </clipPath>
    <clipPath id="clip-path-18">
      <path id="Path_4490" d="M255.443,405.179V412.8a3,3,0,0,0,.351,1.607,1.179,1.179,0,0,0,1.066.541h.255v.3h-3.628v-.3h.272a1.151,1.151,0,0,0,1.047-.518,3,3,0,0,0,.334-1.6V404.9a1.031,1.031,0,0,0-.419-.526,1.715,1.715,0,0,0-.84-.158h-.395v-.3h2.763l4.475,8.6v-6.133a2.97,2.97,0,0,0-.358-1.619,1.2,1.2,0,0,0-1.074-.545h-.257v-.3h3.646v.3H262.4a1.167,1.167,0,0,0-1.044.524,2.961,2.961,0,0,0-.341,1.592v9.108h-.225Z" transform="translate(-253.487 -403.916)" fill="#0074c2" clip-rule="evenodd" />
    </clipPath>
    <clipPath id="clip-path-19">
      <path id="Path_4491" d="M275.325,415.247v-.3h1.538V404.209l-.115-.008h-.124a2.284,2.284,0,0,0-2.025,1.052,4.685,4.685,0,0,0-.592,1.348,7.461,7.461,0,0,0-.248,1.986h-.178v-4.671h8.006v4.671H281.4a7.263,7.263,0,0,0-.9-3.448,2.6,2.6,0,0,0-2.259-.938h-.031v10.743h1.549v.3Z" transform="translate(-273.581 -403.916)" fill="#0074c2" clip-rule="evenodd" />
    </clipPath>
    <clipPath id="clip-path-20">
      <path id="Path_4492" d="M291.56,415.247v-.3h1.548V404.22H291.56v-.3h7.891v3.851h-.17a5.867,5.867,0,0,0-.919-2.758,2.335,2.335,0,0,0-1.936-.79h-1.975v4.793h.607a1.644,1.644,0,0,0,1.368-.66,2.621,2.621,0,0,0,.4-.808,3.623,3.623,0,0,0,.145-1.056h.161v5.167h-.161a3.752,3.752,0,0,0-.133-1.056,2.183,2.183,0,0,0-.372-.756,1.569,1.569,0,0,0-1.312-.546h-.7v5.648H296.4a2.4,2.4,0,0,0,2.053-1.015,6.775,6.775,0,0,0,.986-3.156h.179v4.474Z" transform="translate(-291.56 -403.916)" fill="#0074c2" clip-rule="evenodd" />
    </clipPath>
    <clipPath id="clip-path-21">
      <path id="Path_4493" d="M315.923,404.22h-1.688v5.14h1.471a2.3,2.3,0,0,0,1.8-.544,3.6,3.6,0,0,0,.451-2.162,3.078,3.078,0,0,0-.439-1.911A2.015,2.015,0,0,0,315.923,404.22Zm-4.58,11.028v-.3h1.549V404.22h-1.549v-.3h5.106a3.168,3.168,0,0,1,2.2.707,2.572,2.572,0,0,1,.777,2,2.648,2.648,0,0,1-.775,2,3.616,3.616,0,0,1-2.219.887,3.213,3.213,0,0,1,.949.132,2.661,2.661,0,0,1,.761.367,2.154,2.154,0,0,1,.836,1.255,1.837,1.837,0,0,1,.054.234c.01.068.027.187.054.359a7.352,7.352,0,0,1,.038.8v.793a2.134,2.134,0,0,0,.016.276c.01.077.02.138.026.182a1.4,1.4,0,0,0,.036.152,1.721,1.721,0,0,0,.39.811.967.967,0,0,0,.693.233h.147a1.668,1.668,0,0,1,.17-.035.86.86,0,0,0,.133-.033,2.209,2.209,0,0,0,.22-.084v.3a1.864,1.864,0,0,1-.437.144c-.083.017-.161.031-.24.042a2.009,2.009,0,0,1-.258.015,2.076,2.076,0,0,1-1.8-.706,4.872,4.872,0,0,1-.511-2.668,3.316,3.316,0,0,0-.393-1.946,1.729,1.729,0,0,0-1.4-.478h-1.688v5.3h1.548v.3Z" transform="translate(-311.343 -403.916)" fill="#0074c2" clip-rule="evenodd" />
    </clipPath>
    <clipPath id="clip-path-22">
      <path id="Path_4494" d="M333.209,405.179V412.8a2.965,2.965,0,0,0,.35,1.607,1.177,1.177,0,0,0,1.064.541h.258v.3h-3.629v-.3h.271a1.155,1.155,0,0,0,1.05-.518,3.009,3.009,0,0,0,.333-1.6V404.9a1.017,1.017,0,0,0-.421-.526,1.7,1.7,0,0,0-.838-.158h-.4v-.3h2.762l4.477,8.6v-6.133a2.978,2.978,0,0,0-.357-1.619,1.2,1.2,0,0,0-1.078-.545H336.8v-.3h3.648v.3h-.289a1.158,1.158,0,0,0-1.041.524,2.948,2.948,0,0,0-.341,1.592v9.108h-.226Z" transform="translate(-331.252 -403.916)" fill="#0074c2" clip-rule="evenodd" />
    </clipPath>
    <clipPath id="clip-path-23">
      <path id="Path_4495" d="M351.592,411.147h3.256l-1.611-5.5Zm-.483,1.577c-.029.1-.051.165-.057.2s-.021.107-.036.21l-.032.412a1.218,1.218,0,0,0,.307.885,1.125,1.125,0,0,0,.838.315h.323v.3h-3.442v-.3a1.62,1.62,0,0,0,1.073-.544,5.175,5.175,0,0,0,.795-1.72l2.676-8.942h.348l3.378,11.208H358.3v.3h-3.722v-.3l1.338,0-.973-3.316h-3.452Z" transform="translate(-349.009 -403.541)" fill="#0074c2" clip-rule="evenodd" />
    </clipPath>
    <clipPath id="clip-path-24">
      <path id="Path_4496" d="M368.191,415.247v-.3h1.538V404.209l-.117-.008h-.124a2.279,2.279,0,0,0-2.023,1.052,4.712,4.712,0,0,0-.593,1.348,7.5,7.5,0,0,0-.247,1.986h-.178v-4.671h8.006v4.671h-.187a7.288,7.288,0,0,0-.9-3.448,2.609,2.609,0,0,0-2.26-.938h-.03v10.743h1.547v.3Z" transform="translate(-366.447 -403.916)" fill="#0074c2" clip-rule="evenodd" />
    </clipPath>
    <clipPath id="clip-path-25">
      <path id="Path_4497" d="M387.319,414.946h1.545v.3h-4.436v-.3h1.547V404.219h-1.547v-.3h4.436v.3h-1.545Z" transform="translate(-384.429 -403.917)" fill="#0074c2" clip-rule="evenodd" />
    </clipPath>
    <clipPath id="clip-path-26">
      <path id="Path_4498" d="M399.372,414.944a1.866,1.866,0,0,0,1.115-.362,2.909,2.909,0,0,0,.874-1.063,3.94,3.94,0,0,0,.334-1.245,25.394,25.394,0,0,0,.109-2.881,21.56,21.56,0,0,0-.155-3.228,3.445,3.445,0,0,0-.528-1.351,2.38,2.38,0,0,0-.8-.727,1.937,1.937,0,0,0-.95-.261,1.99,1.99,0,0,0-.971.261,2.368,2.368,0,0,0-.795.727,3.609,3.609,0,0,0-.537,1.378,11.063,11.063,0,0,0-.108,1.219q-.039.8-.041,1.981v.365a22.538,22.538,0,0,0,.1,2.585,3.342,3.342,0,0,0,.348,1.176,2.867,2.867,0,0,0,.874,1.06,1.916,1.916,0,0,0,1.132.365m0-11.4a2.809,2.809,0,0,1,1.285.315,3.62,3.62,0,0,1,1.119.915,6.505,6.505,0,0,1,1.152,2.132,8.576,8.576,0,0,1,.4,2.662,8.031,8.031,0,0,1-.306,2.3,6.1,6.1,0,0,1-.94,1.883,3.914,3.914,0,0,1-1.239,1.1,2.978,2.978,0,0,1-1.467.4,3.018,3.018,0,0,1-1.464-.4,4,4,0,0,1-1.265-1.105,6.142,6.142,0,0,1-.932-1.875,7.845,7.845,0,0,1-.233-1.094,8.667,8.667,0,0,1-.079-1.21,9.277,9.277,0,0,1,.187-1.849,7.633,7.633,0,0,1,.544-1.669,5.03,5.03,0,0,1,1.419-1.855,2.927,2.927,0,0,1,1.823-.65" transform="translate(-395.399 -403.542)" fill="#0074c2" clip-rule="evenodd" />
    </clipPath>
    <clipPath id="clip-path-27">
      <path id="Path_4499" d="M415.44,405.179V412.8a3.008,3.008,0,0,0,.351,1.607,1.183,1.183,0,0,0,1.067.541h.255v.3h-3.627v-.3h.272a1.15,1.15,0,0,0,1.047-.518,3.01,3.01,0,0,0,.332-1.6V404.9a1.016,1.016,0,0,0-.415-.526,1.725,1.725,0,0,0-.842-.158h-.394v-.3h2.764l4.473,8.6v-6.133a2.949,2.949,0,0,0-.357-1.619,1.2,1.2,0,0,0-1.073-.545h-.257v-.3h3.646v.3h-.288a1.162,1.162,0,0,0-1.042.524,2.987,2.987,0,0,0-.342,1.592v9.108h-.224Z" transform="translate(-413.485 -403.916)" fill="#0074c2" clip-rule="evenodd" />
    </clipPath>
    <clipPath id="clip-path-28">
      <path id="Path_4500" d="M433.822,411.147h3.257l-1.611-5.5Zm-.482,1.577c-.03.1-.05.165-.058.2s-.02.107-.036.21l-.03.412a1.205,1.205,0,0,0,.31.885,1.117,1.117,0,0,0,.838.315h.318v.3h-3.442v-.3a1.628,1.628,0,0,0,1.074-.544,5.146,5.146,0,0,0,.792-1.72l2.679-8.942h.354l3.375,11.208h1.019v.3h-3.726v-.3l1.343,0-.974-3.316h-3.453Z" transform="translate(-431.239 -403.541)" fill="#0074c2" clip-rule="evenodd" />
    </clipPath>
    <clipPath id="clip-path-29">
      <path id="Path_4501" d="M454.409,403.916v.3h-1.548v10.725h1.4a2.9,2.9,0,0,0,2.45-1.143,7.781,7.781,0,0,0,1.186-3.636h.175v5.081h-8.1v-.3h1.548V404.22h-1.548v-.3Z" transform="translate(-449.969 -403.916)" fill="#0074c2" clip-rule="evenodd" />
    </clipPath>
    <clipPath id="clip-path-30">
      <path id="Path_4502" d="M120.118,393.2c.135.086.343-.009.562-.124.459-.239.551-.648.708-3.116.128-2.013-.35-2.751-.561-2.975a.571.571,0,0,0-.4-.21h0c-.342.024-.372.406-.372.763,0,.432-.043,4.1-.085,4.949-.023.413.023.635.149.713" transform="translate(-119.963 -386.776)" fill="#0074c2" clip-rule="evenodd" />
    </clipPath>
    <clipPath id="clip-path-31">
      <rect id="Rectangle_5251" width="0.413" height="1.971" transform="translate(0 0.119) rotate(-16.754)" fill="#0074c2" />
    </clipPath>
    <clipPath id="clip-path-32">
      <path id="Path_4503" d="M101.628,435.968l.418-.107L103.127,437l-.335-1.326.371-.092.484,1.909-.4.1-1.109-1.152.344,1.346-.37.1Z" transform="translate(-101.628 -435.58)" fill="#0074c2" clip-rule="evenodd" />
    </clipPath>
    <clipPath id="clip-path-33">
      <path id="Path_4504" d="M107.957,434.57l.067.338-.578.115.318,1.595-.4.083-.319-1.6-.58.116-.067-.333Z" transform="translate(-106.396 -434.57)" fill="#0074c2" clip-rule="evenodd" />
    </clipPath>
    <clipPath id="clip-path-34">
      <path id="Path_4505" d="M112.74,434.2l-1.011.154.059.408.929-.138.05.337-.926.14.075.5,1.061-.159.052.349-1.46.22-.295-1.949,1.412-.213Z" transform="translate(-111.275 -433.85)" fill="#0074c2" clip-rule="evenodd" />
    </clipPath>
    <clipPath id="clip-path-35">
      <path id="Path_4506" d="M117.339,433.44a.465.465,0,0,1,.2.119.727.727,0,0,1,.112.154.6.6,0,0,1,.058.205.588.588,0,0,1-.046.281.392.392,0,0,1-.212.215.355.355,0,0,1,.2.136.651.651,0,0,1,.088.3l.012.129a.984.984,0,0,0,.029.182.167.167,0,0,0,.086.1l0,.049-.45.044a.907.907,0,0,1-.037-.1,1.018,1.018,0,0,1-.032-.164l-.021-.183a.376.376,0,0,0-.088-.241.318.318,0,0,0-.243-.039l-.4.039.074.768-.4.04-.191-1.964.936-.091A.88.88,0,0,1,117.339,433.44Zm-.818.375.052.526.442-.043a.445.445,0,0,0,.191-.052.221.221,0,0,0,.1-.231.249.249,0,0,0-.137-.229.4.4,0,0,0-.193-.017Z" transform="translate(-116.088 -433.415)" fill="#0074c2" clip-rule="evenodd" />
    </clipPath>
    <clipPath id="clip-path-36">
      <path id="Path_4507" d="M121.227,433.084l.431-.023.83,1.331-.063-1.363.384-.018.09,1.969-.412.018-.853-1.353.064,1.389-.382.017Z" transform="translate(-121.227 -433.011)" fill="#0074c2" clip-rule="evenodd" />
    </clipPath>
    <clipPath id="clip-path-37">
      <path id="Path_4508" d="M126.811,432.982l.47,0,.685,1.974-.448,0-.125-.405-.728-.005-.134.4H126.1Zm-.03,1.223.5,0-.242-.775Z" transform="translate(-126.097 -432.982)" fill="#0074c2" clip-rule="evenodd" />
    </clipPath>
    <clipPath id="clip-path-38">
      <path id="Path_4509" d="M132.407,433.107l-.018.342-.588-.032-.083,1.627-.412-.018.083-1.629-.591-.028.018-.342Z" transform="translate(-130.798 -433.027)" fill="#0074c2" clip-rule="evenodd" />
    </clipPath>
    <clipPath id="clip-path-39">
      <rect id="Rectangle_5260" width="1.971" height="0.412" transform="matrix(0.09, -0.996, 0.996, 0.09, 0, 1.963)" fill="#0074c2" />
    </clipPath>
    <clipPath id="clip-path-40">
      <path id="Path_4510" d="M139.337,435.571a1.023,1.023,0,0,1-1.28-.165,1.067,1.067,0,0,1-.193-.843,1.045,1.045,0,0,1,.4-.765,1.008,1.008,0,0,1,1.278.163,1.067,1.067,0,0,1,.191.844,1.081,1.081,0,0,1-.4.766m-.218-.335a.793.793,0,0,0,.206-.487.812.812,0,0,0-.075-.522.508.508,0,0,0-.768-.1.8.8,0,0,0-.206.487.781.781,0,0,0,.077.521.5.5,0,0,0,.766.1" transform="translate(-137.851 -433.638)" fill="#0074c2" clip-rule="evenodd" />
    </clipPath>
    <clipPath id="clip-path-41">
      <path id="Path_4511" d="M143.388,434.317l.424.08.508,1.481.249-1.341.375.068-.357,1.938-.4-.073-.523-1.51-.255,1.364-.375-.067Z" transform="translate(-143.031 -434.317)" fill="#0074c2" clip-rule="evenodd" />
    </clipPath>
    <clipPath id="clip-path-42">
      <path id="Path_4512" d="M148.8,435.595l.457.108.216,2.081-.436-.105-.032-.422-.706-.169-.221.36-.424-.1Zm-.308,1.185.486.119-.057-.809Z" transform="translate(-147.65 -435.595)" fill="#0074c2" clip-rule="evenodd" />
    </clipPath>
    <clipPath id="clip-path-43">
      <path id="Path_4513" d="M153.34,436.586l.4.116-.459,1.554.942.279-.1.336-1.34-.393Z" transform="translate(-152.785 -436.586)" fill="#0074c2" clip-rule="evenodd" />
    </clipPath>
    <clipPath id="clip-path-44">
      <path id="Path_4514" d="M99.163,432.336a.733.733,0,0,1-.43.274l-.39.115.2.677-.4.117-.554-1.892.811-.236a.672.672,0,0,1,.489.016.606.606,0,0,1,.3.4.617.617,0,0,1-.026.524m-.506-.594a.329.329,0,0,0-.224,0l-.35.1.163.555.349-.1a.323.323,0,0,0,.188-.13.288.288,0,0,0,.009-.234.278.278,0,0,0-.135-.19" transform="translate(-97.59 -431.355)" fill="#0074c2" clip-rule="evenodd" />
    </clipPath>
    <clipPath id="clip-path-45">
      <path id="Path_4515" d="M103.269,431.988l-.447-1.919.4-.093.17.733.735-.173-.168-.732.4-.094.444,1.918-.4.1-.2-.855-.739.171.2.855Z" transform="translate(-102.821 -429.711)" fill="#0074c2" clip-rule="evenodd" />
    </clipPath>
    <clipPath id="clip-path-46">
      <rect id="Rectangle_5268" width="0.412" height="1.97" transform="translate(0 0.073) rotate(-10.197)" fill="#0074c2" />
    </clipPath>
    <clipPath id="clip-path-47">
      <path id="Path_4516" d="M111.649,428.612l.41-.063.23,1.6.969-.14.054.35-1.382.2Z" transform="translate(-111.649 -428.549)" fill="#0074c2" clip-rule="evenodd" />
    </clipPath>
    <clipPath id="clip-path-48">
      <path id="Path_4517" d="M117.294,429.9l-.41.041-.2-1.96.411-.042Z" transform="translate(-116.682 -427.937)" fill="#0074c2" clip-rule="evenodd" />
    </clipPath>
    <clipPath id="clip-path-49">
      <path id="Path_4518" d="M121.371,428.705a.738.738,0,0,1-.481.172l-.405.024.041.7-.414.026-.115-1.97.845-.047a.669.669,0,0,1,.472.124.6.6,0,0,1,.2.463.616.616,0,0,1-.143.5m-.359-.691a.306.306,0,0,0-.218-.053l-.364.019.034.582.363-.023a.291.291,0,0,0,.209-.085.283.283,0,0,0,.064-.228.272.272,0,0,0-.088-.212" transform="translate(-119.996 -427.612)" fill="#0074c2" clip-rule="evenodd" />
    </clipPath>
    <clipPath id="clip-path-50">
      <path id="Path_4519" d="M129.79,427.482l.591.017-.06,1.972-.382-.011.04-1.334c0-.037,0-.09.007-.161s0-.121,0-.159l-.42,1.643-.4-.012-.319-1.666c0,.039-.005.092-.005.161s0,.124,0,.16l-.039,1.332-.385-.008.061-1.972.6.018.312,1.562Z" transform="translate(-128.42 -427.444)" fill="#0074c2" clip-rule="evenodd" />
    </clipPath>
    <clipPath id="clip-path-51">
      <path id="Path_4520" d="M136.153,429.655a1.013,1.013,0,0,1-1.282-.118,1.069,1.069,0,0,1-.225-.835,1.055,1.055,0,0,1,.373-.782.867.867,0,0,1,.662-.171.858.858,0,0,1,.62.291,1.039,1.039,0,0,1,.224.832,1.066,1.066,0,0,1-.372.782m-.228-.325a.986.986,0,0,0,.092-1.013.472.472,0,0,0-.366-.214.478.478,0,0,0-.4.144.8.8,0,0,0-.191.5.792.792,0,0,0,.1.519.5.5,0,0,0,.769.069" transform="translate(-134.639 -427.745)" fill="#0074c2" clip-rule="evenodd" />
    </clipPath>
    <clipPath id="clip-path-52">
      <path id="Path_4521" d="M142.011,428.6a.459.459,0,0,1,.162.163.551.551,0,0,1,.075.18.571.571,0,0,1,.007.21.629.629,0,0,1-.112.263.4.4,0,0,1-.261.155.359.359,0,0,1,.166.183.628.628,0,0,1,.01.313l-.019.131a1.007,1.007,0,0,0-.017.182.162.162,0,0,0,.058.121l-.007.049-.447-.067a.944.944,0,0,1-.011-.109.881.881,0,0,1,.009-.169l.024-.182a.38.38,0,0,0-.027-.258.337.337,0,0,0-.223-.1l-.4-.059-.114.764-.4-.062.3-1.948.929.142A.848.848,0,0,1,142.011,428.6Zm-.884.161-.079.526.437.064a.485.485,0,0,0,.2,0,.217.217,0,0,0,.15-.2.261.261,0,0,0-.074-.255.438.438,0,0,0-.186-.062Z" transform="translate(-140.485 -428.361)" fill="#0074c2" clip-rule="evenodd" />
    </clipPath>
    <clipPath id="clip-path-53">
      <path id="Path_4522" d="M147.608,429.612a.5.5,0,0,1,.152.174.546.546,0,0,1,.063.184.574.574,0,0,1-.134.463.386.386,0,0,1-.269.14.373.373,0,0,1,.157.194.627.627,0,0,1-.009.314l-.027.128a1.123,1.123,0,0,0-.028.182.174.174,0,0,0,.049.124l-.008.048-.443-.094c0-.046-.006-.079-.006-.108a.741.741,0,0,1,.021-.169l.033-.181a.364.364,0,0,0-.012-.257.316.316,0,0,0-.217-.111l-.391-.083-.16.754-.395-.083.408-1.927.922.192A.991.991,0,0,1,147.608,429.612Zm-.892.111-.108.517.431.092a.49.49,0,0,0,.2.009.219.219,0,0,0,.159-.193.248.248,0,0,0-.059-.258.377.377,0,0,0-.178-.074Z" transform="translate(-145.986 -429.305)" fill="#0074c2" clip-rule="evenodd" />
    </clipPath>
    <clipPath id="clip-path-54">
      <path id="Path_4523" d="M151.737,432.567l-.4-.106.494-1.908.4.1Z" transform="translate(-151.335 -430.553)" fill="#0074c2" clip-rule="evenodd" />
    </clipPath>
    <clipPath id="clip-path-55">
      <path id="Path_4524" d="M154.861,432.9a.416.416,0,0,0,.013.213.435.435,0,0,0,.293.219.858.858,0,0,0,.236.037.231.231,0,0,0,.23-.171.167.167,0,0,0-.037-.168.923.923,0,0,0-.231-.165l-.187-.107a1.44,1.44,0,0,1-.365-.268.487.487,0,0,1-.07-.467.57.57,0,0,1,.314-.366.851.851,0,0,1,.6,0,.882.882,0,0,1,.467.315.593.593,0,0,1,.081.526l-.381-.117a.284.284,0,0,0-.076-.288.6.6,0,0,0-.218-.117.45.45,0,0,0-.263-.01.2.2,0,0,0-.145.141.173.173,0,0,0,.044.179,1.153,1.153,0,0,0,.225.152l.3.179a.872.872,0,0,1,.282.235.482.482,0,0,1,.052.437.563.563,0,0,1-.328.369.867.867,0,0,1-.613,0,.954.954,0,0,1-.531-.344.587.587,0,0,1-.07-.527Z" transform="translate(-154.449 -431.599)" fill="#0074c2" clip-rule="evenodd" />
    </clipPath>
    <clipPath id="clip-path-56">
      <path id="Path_4525" d="M118.706,398.7h.005c4.383,0,7.944-4.288,7.944-9.551s-3.562-9.551-7.944-9.553h-.005c-4.382,0-7.947,4.286-7.947,9.553s3.564,9.548,7.947,9.551m0-18.643c4.129,0,7.488,4.079,7.488,9.092s-3.359,9.09-7.488,9.09-7.488-4.079-7.488-9.09,3.359-9.092,7.488-9.092" transform="translate(-110.759 -379.6)" fill="#0074c2" clip-rule="evenodd" />
    </clipPath>
    <clipPath id="clip-path-57">
      <path id="Path_4526" d="M114.047,394.784c-.089.057-.153.07-.192.035a.1.1,0,0,1-.029-.079.512.512,0,0,1,.03-.139,34.185,34.185,0,0,0,.532-7.151c0-1.085-.026-1.987-.068-2.439-.009-.1-.013-.184-.013-.259,0-.348.108-.407.327-.491l.023-.008a.831.831,0,0,0,.534-.345,1.182,1.182,0,0,1,1.062-.795c.448,0,2.121.6,2.121,3.562a3.611,3.611,0,0,1-2.3,3.748l-.048.018c-.2.076-.222.254-.235.409l-.008.046c-.315,2.787-1.4,3.68-1.733,3.89M119.334,384c-.025-.124-.021-.168.01-.18s.073.031.143.153l.031.053a25.641,25.641,0,0,1,1.716,4.475.285.285,0,0,0,.032.087.363.363,0,0,0,.037-.087,26.484,26.484,0,0,1,1.84-4.619c.143-.2.191-.231.228-.215s.03.089.01.195l-.012.063a30.975,30.975,0,0,0,1,10.746c.053.16.046.2.017.223s-.1-.03-.157-.089c0,0-.013-.017-.008-.014-1.464-.974-2.211-4.059-2.233-4.3-.009-.108-.033-.132-.037-.137a.153.153,0,0,0-.012.021c-.119.4-.457,1.952-.683,2.981-.1.481-.18.83-.2.892l-.024.1c-.016.07-.022.1-.056.1s-.043-.026-.1-.2-.349-1.309-.585-2.231c-.167-.646-.31-1.2-.333-1.272a.549.549,0,0,0-.047-.126c-.007.011-.02.038-.02.038l-.183.571a5.8,5.8,0,0,1-1.852,3.263c-.26.193-.3.19-.329.166s0-.1.094-.237a21.059,21.059,0,0,0,1.7-10.421m-.117,14.751c4.129,0,7.488-4.079,7.488-9.09s-3.359-9.093-7.488-9.093-7.488,4.079-7.488,9.093,3.359,9.09,7.488,9.09" transform="translate(-111.729 -380.57)" fill="#0074c2" clip-rule="evenodd" />
    </clipPath>
    <clipPath id="clip-path-58">
      <path id="Path_4527" d="M126.06,357.917a.38.38,0,1,1,.38.38.381.381,0,0,1-.38-.38m1.218,0a.839.839,0,1,0-.839.837.841.841,0,0,0,.839-.837" transform="translate(-125.601 -357.077)" fill="#0074c2" clip-rule="evenodd" />
    </clipPath>
    <clipPath id="clip-path-59">
      <rect id="Rectangle_5284" width="60.003" height="43.862" fill="#0074c2" />
    </clipPath>
    <clipPath id="clip-path-60">
      <rect id="Rectangle_5283" width="60.227" height="43.959" fill="#0074c2" />
    </clipPath>
    <clipPath id="clip-path-61">
      <path id="Path_4528" d="M123.653,369.032a.241.241,0,0,1,.063.129.052.052,0,0,1-.005.023c-.015.056-.094.135-.267.2a.821.821,0,0,1-.658-.053l-.03-.014-.067-.024c-.847-.322-.533-.244-.651.554-.02.1-.034.218-.049.339a9.767,9.767,0,0,1-.388,1.7l-.067.258a.359.359,0,0,1-.01.05,2.847,2.847,0,0,1-.33-.307l-.162-.17a4.107,4.107,0,0,1-1.437-2.336,1.22,1.22,0,0,1,.339-.831.545.545,0,0,0,.258-.413.117.117,0,0,0,0-.03c-.019-.263-.287-.394-.481-.489l-.09-.048a2.93,2.93,0,0,0-2.265-.034,2.433,2.433,0,0,0-1.254,1.956v.016a3.446,3.446,0,0,0,1.29,3.418,1.744,1.744,0,0,0-.17.491,2.925,2.925,0,0,1-.1.373c-.047.158-.1.328-.134.491-.46-.7-1.093-1.77-1.287-2.13a4.574,4.574,0,0,1-.169-3.955,2.858,2.858,0,0,1,1.458-1.339,2.651,2.651,0,0,1,1.987-.1,4.554,4.554,0,0,0,1.053.337,3.149,3.149,0,0,0,1.131-.154,2.106,2.106,0,0,1,.6-.106,4.361,4.361,0,0,1,.835.283,3.861,3.861,0,0,0,.525.188,1.232,1.232,0,0,0,.268.009,1.124,1.124,0,0,1,.385.028h0a.711.711,0,0,1-.138.33l-.006,0v.006a1.522,1.522,0,0,0-.189.71A1,1,0,0,0,123.653,369.032Zm-.674,2.226a5.22,5.22,0,0,0-.541,1.958.886.886,0,0,0,.444.714c.041.024.038.064-.009.093-.031.017-.159.091-.159.091a1.791,1.791,0,0,1-.66.214.544.544,0,0,1-.445-.155,3.019,3.019,0,0,1-.622-1.845c.318.314.518.414.709.357.22-.067.26-.3.289-.465l.039-.162a10.169,10.169,0,0,0,.42-1.817,2.428,2.428,0,0,1,.1-.516.123.123,0,0,1,.033.009l.028.014c.046.018.1.042.163.064a2.689,2.689,0,0,1,.283,1.076A.884.884,0,0,1,122.979,371.258Zm-5.417,2.658c.05-.168.07-.278.112-.43a2.449,2.449,0,0,1,.611-1.011c0-.007.008-.01.01-.016.01.035.033.125.033.125l.049.164c.076.259.192.614.258.792.241.637.153.715.866.407l.191-.078a.364.364,0,0,1,.043-.024,1.011,1.011,0,0,1,.025.155l0,.032c.016.163.283,1.207.347,1.457.23.89-.012.819.727.521.513-.209.805-.154.826-.111.182.3-.7,1.729-1.106,2.092a4.3,4.3,0,0,0-.673,1.053l-.024.057a5.093,5.093,0,0,1-.665,1.212,2.734,2.734,0,0,1-3.509.694l-.053-.022a3.173,3.173,0,0,0,.224-.954,2.088,2.088,0,0,0,1.412.477,2.29,2.29,0,0,0,2.109-2.275,1.772,1.772,0,0,0-1.714-1.734,1.9,1.9,0,0,0-1.04.2c0-.039-.01-.119-.01-.22,0-.332.062-.91.468-1.074.061-.023.168-.066.227-.082.689-.18.666-.187.2-.52-.028-.02-.046-.027-.07-.047a.26.26,0,0,0-.019-.019.173.173,0,0,1-.02-.1A3.4,3.4,0,0,1,117.562,373.916Zm-1.08,8.9.123.091c.262.194.805.6.76.981-.034.288-.034,1.536-.034,1.549a6.827,6.827,0,0,0,.145.9c.058.291.115.594.13.741a5.233,5.233,0,0,1-.249,1.765.405.405,0,0,1-.3.186.425.425,0,0,1-.335-.067l-.06-.062c-.261-.731-.369-.339-.613.068l-.1.067c-.258.164-.5-.082-.565-.162a.269.269,0,0,1-.086-.191.351.351,0,0,0,0-.06h0c.118-.659.09-.595-.429-.306a.457.457,0,0,0-.083.047l0,0c-.058.036-.281.118-.327.085-.121-.1-.164-.158-.164-.391a2.4,2.4,0,0,1,1.1-1.322,1.5,1.5,0,0,0,.71-1.4c0-.075-.005-.152-.012-.234a1.362,1.362,0,0,0-.707-1.1,7.411,7.411,0,0,0-1.3-.217,4.51,4.51,0,0,1-2.194-1.024,5.746,5.746,0,0,1-1.678-2.677,1.01,1.01,0,0,1-.024-.253,6.179,6.179,0,0,1,.419-1.959,2.26,2.26,0,0,0,.237-1.035c0-.043,0-.084,0-.122a8.087,8.087,0,0,1,.761.654c.832.816.686.441.251-.16a3.986,3.986,0,0,0-.9-.982,5.028,5.028,0,0,0-1.708-.731,3.7,3.7,0,0,1-1.494-.583c.056-.033.109-.061.15-.087s.4-.261.735-.506a.975.975,0,0,0,.514.385,1.142,1.142,0,0,0,1.072-.368,3.157,3.157,0,0,0,.282-.558s.1-.22.1-.23a6.083,6.083,0,0,1,.933-.674c.212-.1.157-.143-.052-.113-.248.038-1.119.277-1.275.553l-.134.288a2.527,2.527,0,0,1-.233.471.71.71,0,0,1-.585.185.534.534,0,0,1-.259-.224,1.089,1.089,0,0,0,.151-.161.226.226,0,0,0-.076-.308.236.236,0,0,0-.317.071l.005-.009a9.392,9.392,0,0,1-1.111.813,6.018,6.018,0,0,1-.924.508l-.258.128-.126.053a.809.809,0,0,0-.6.782c-.048.48-.231.831-.374.845a.621.621,0,0,1-.45-.218.953.953,0,0,1-.1-.131c-.145-.4-.213-.4-.456-.1-.076.093-.366,0-.459-.029s-.223-.121-.187-.275c.159-.8.159-.841-.432-.676-.089.014-.15-.041-.2-.136s.023-.313.135-.661l.011-.034a2.03,2.03,0,0,1,.631-.763c.126-.123.3-.267.418-.388a3.073,3.073,0,0,1,1.1-.477,3.992,3.992,0,0,0,1.325-.708,7.623,7.623,0,0,1,1.5-1c.239-.111.224-.194-.162-.084a6.454,6.454,0,0,0-1.66.765c-.022.021-.051.046-.086.074a2.615,2.615,0,0,1,.194-2.55l.019-.028.045,0,.124-.009.423-.025a.491.491,0,0,0,.146.37.988.988,0,0,0,.937.111c.013-.005,1.3-.547,1.545-.715a2.162,2.162,0,0,1,.263-.147c.033.283.1.773.176,1.129a.818.818,0,0,0,.437.636.531.531,0,0,0,.492-.04l.056-.024a1.878,1.878,0,0,0,.918-1.015c.033-.072.064-.132.088-.182.009.019.012.033.024.058l.072.15.078.164a13.832,13.832,0,0,1,1.6,5.081l.087.861a2.6,2.6,0,0,0,.8,1.746.826.826,0,0,1,.146.163,4.121,4.121,0,0,1,.392,1.324c0,.01,0,.018,0,.027a1.27,1.27,0,0,0,.039.3,3.454,3.454,0,0,1-.154,1.4c-.109-.158-.2-.293-.264-.391-.535-.818-1.622-1.516-.388.243A11.2,11.2,0,0,0,116.483,382.818Zm1.431,5.808h5.443c-.3.525-1.43,2.484-1.43,2.484s1.08,2.1,1.346,2.619H109.92l1.082-3.7-.192-.077c-.616-.226-1.249-.441-1.89-.643.41-.327.824-.658.853-.68H114a1,1,0,0,0,.209.207.745.745,0,0,0,.655,0,.817.817,0,0,0,.167.345.885.885,0,0,0,1.163.254l.2-.138,0,0a.869.869,0,0,0,.723.193.849.849,0,0,0,.641-.419A1.757,1.757,0,0,0,117.913,388.626Zm-9.253,7.76a45.127,45.127,0,0,0-14.347-2.441h-.027a45.032,45.032,0,0,0-14.348,2.444l-1.776-6.083a49.075,49.075,0,0,1,16.123-2.813h.028a49.186,49.186,0,0,1,16.139,2.819Zm-43.55-2.657c.266-.52,1.347-2.619,1.347-2.619s-1.128-1.958-1.433-2.484h4.459c0,.019-.005.039-.005.06a.574.574,0,0,0,.074.289.644.644,0,0,0,.483.3,3.849,3.849,0,0,0,.777.054l.1,0c.547-.018,1.155-.04,1.341-.7H78.8c.03.022.469.348.909.671q-.977.307-1.919.651l-.191.07,1.09,3.71Zm4.232-6.2-.428-.025a.132.132,0,0,1-.08-.027c-.043-.062.02-.333.054-.477a2.879,2.879,0,0,0,.062-.446,3.851,3.851,0,0,1,.058-.443,6.926,6.926,0,0,0,.173-1.559c0-.193-.005-.405-.021-.636-.013-.2-.02-.361-.02-.494,0-.425.057-.541.084-.574.017-.018.071-.022.157-.028l.154-.013.138-.014a2.717,2.717,0,0,0,2.2-1.164c.45-.719.561-1.432.658-3.2a4.739,4.739,0,0,1,1.883-3.333l.313-.174c.415-.228.917-.553,1.338-.807a.944.944,0,0,0,.484-.479,7.837,7.837,0,0,1,.314-.756,9.06,9.06,0,0,0,.51-1.379,5.033,5.033,0,0,0-.176-2.968,1.04,1.04,0,0,0,.172.033.576.576,0,0,0,.618-.3,1.54,1.54,0,0,0,.537.286c.534.2,1.2.367,1.523.084a.716.716,0,0,1,.048.06,16.114,16.114,0,0,0,2.3,1.652c.9.6,1.834,1.217,2.241,1.56.224.188.312.276.312.52a1.6,1.6,0,0,1-.019.226c-.024.19-.079.462-.138.746a11.03,11.03,0,0,0-.182,1.49,13.975,13.975,0,0,0,.051,1.566l.02.24a2.107,2.107,0,0,1,.02.269.326.326,0,0,1-.155.329,11.335,11.335,0,0,1-1.292.5c-.305.1-.483.164-.568.206a.358.358,0,0,1-.312.008c-.1-.064-.122-.236-.127-.368l-.016-.328c-.03-.453-.032-.479.3-.6a.264.264,0,0,1,.224.008.746.746,0,0,0,.53,0,1.244,1.244,0,0,0,.744-.732c.168-.308.074-.686.115-1.37l.027-.469c.032-.344.218-.833-.689-1.123-1.534-.492-2.431-.755-2.741-.806a2.71,2.71,0,0,1-.983-.345.218.218,0,0,0-.312,0,.231.231,0,0,0,0,.323,2.806,2.806,0,0,0,1.226.476c.195.034.814.212,2.681.795a.508.508,0,0,1,.128.056c-.073.15-.149.3-.231.46a9.07,9.07,0,0,1-1.48,1.94,3.934,3.934,0,0,1-2.154,1.051,4.121,4.121,0,0,0-3.463,2.372,15.134,15.134,0,0,0-.683,1.528,4.606,4.606,0,0,1-.481,1.014c-.3.351-1.093.769-1.488.6a1.153,1.153,0,0,0-1.165-.056c-.185.106-.121.249-.48.22-.129-.011-.582-.038-.591.09s.312.242.435.252c.707.059.625-.025.864-.16.126-.072.23-.132.623.022a.889.889,0,0,1-.571.62,2.928,2.928,0,0,1-1.237.035c-.443-.048-1.09.075-1.15.441l-.041.185a6.763,6.763,0,0,0-.136.719,2.189,2.189,0,0,0,.289,1.39c.1.1.368.325.633.548l.427.361.072.061c.194.164.392.334.374,1.008-.019.592-.243.624-.954.649l-.1,0a1.181,1.181,0,0,1-.8-.179c-.137-.09.086-.383.117-.477a.583.583,0,0,0,.033-.144h0c.127-.529.474-.513-.491-.523l0,0C69.564,387.536,69.456,387.535,69.342,387.532Zm-.336-8.918c-.474-.961-.06-2.427,1.1-3.923l.313-.421.139-.165a2.717,2.717,0,0,0,.625-1.468.975.975,0,0,0-.034-.262.778.778,0,0,0-.523-.527.8.8,0,0,1-.224-.107,1.537,1.537,0,0,1,.257-.211l.113-.076a1.013,1.013,0,0,1,.728-.155l.118.03a.589.589,0,0,0,.5-.01c.2-.116.329-.375.439-.876a3.184,3.184,0,0,0-.493-2.347,2.6,2.6,0,0,0-2.144-1.2,1.073,1.073,0,0,0-.878.9,1.711,1.711,0,0,0-.086.489,2.065,2.065,0,0,0,.6,1.464.335.335,0,0,0,.034.028c-.028.007-.083.018-.09.018a.719.719,0,0,1-.12-.009c-.279-.03-1.172-.227-1.277.473v.055a1.963,1.963,0,0,1-.391,1,1.987,1.987,0,0,1-.36.488c-.03-.067-.06-.176-.078-.23l-.031-.11a2.664,2.664,0,0,1-.1-.757v-.065a.992.992,0,0,1,.038-.271.781.781,0,0,0,.077-.284.258.258,0,0,0-.108-.213c-.2-.147-.372.04-.81.326-.363.236-.477.236-.691.205a2.8,2.8,0,0,1-.456-.129c-.087-.026-.153-.029-.2-.045a5.464,5.464,0,0,0,1.147-1.4.476.476,0,0,0-.033-.23,1.771,1.771,0,0,0-.857-.656,10.5,10.5,0,0,1,1.216-.348,4.732,4.732,0,0,0,1.864-.755,5.945,5.945,0,0,1,1.746-.744c.926-.211,1.74.292,2.742,1.706a3.238,3.238,0,0,1,.488,1.907,5.222,5.222,0,0,1-.364,1.96l-.058.111a1.363,1.363,0,0,0-.2.611.706.706,0,0,0,.361.589c.211.143.315.243.315.383a.809.809,0,0,1-.153.384l-.338.534a8.344,8.344,0,0,0-.526.88c-.021.048-.164.284-.182.228l-.043-.175-.078-.335c-.119-.711-.233-.856-.423-.884a.292.292,0,0,0-.306.176l-.2.353-.2.327-.208.271-.223.306c-.6.816-1.512,2.048-.562,3.223a1.913,1.913,0,0,0,2.112.338c-.021.336-.048.621-.079.865C70.5,379.852,69.4,379.419,69.005,378.614Zm-1.024-6.232-.23.355c-.344.574-.624,1.135-.829,1.547l-.088.181c-.166.357-.2.37-.3.35a1.515,1.515,0,0,1,.047-.241,1.7,1.7,0,0,0,.073-.426.314.314,0,0,0,0-.065,5.211,5.211,0,0,0-.877-1.707l-.063-.1a1.463,1.463,0,0,1-.161-.771c0-.221.02-.443.036-.614v-.006a1.314,1.314,0,0,0,1.038-.263v.049a3.344,3.344,0,0,0,.16.954l.024.084c.059.217.155.579.477.62.277.038.537-.19.869-.756a2.339,2.339,0,0,0,.461-1.284v-.025l.013-.016c.007-.008.032-.01.07-.011A3.485,3.485,0,0,1,67.981,372.382Zm8.953-4.477a4.982,4.982,0,0,0-.5-.839l0-.007,0,0a.962.962,0,0,0-.074-.085c-.894-1.119-.687-.687-.792.156-.01.064-.017.131-.023.2a2.241,2.241,0,0,1-.038.287.344.344,0,0,1-.078.174c-.019.01-.074.018-.262-.041a1.716,1.716,0,0,1-1.2-1.224l-.008-.019c-.033-.1-.065-.177-.1-.252-.435-1.122-.309-.67-.669-.267h0a.675.675,0,0,0-.1.107l-.033.038a.317.317,0,0,1-.086.086.2.2,0,0,1-.038-.035,4.044,4.044,0,0,1-.578-.947.793.793,0,0,1-.04-.282,4.59,4.59,0,0,1,.1-.773l.019-.108.014-.072c.107-.375.158-.577.009-.725s-.333-.091-.671,0l-.067.018a1.629,1.629,0,0,1-.185.046,5.511,5.511,0,0,0,.11-.976,1.27,1.27,0,0,0-.685-1.307,1.317,1.317,0,0,1-.2-.108,5.935,5.935,0,0,0,2.743-1.388l.184-.193a2.05,2.05,0,0,1,.808-.627.838.838,0,0,1,.589.2c.061.042.189.16.272.233.143.128.29.26.449.111a.242.242,0,0,0,0-.339c-.283-.347-.453-.753-.392-.841,0,0,.086-.077.59.019l-.019,0c.407.1,1.534.62.915.1.133-.03.27-.078.41-.115l.2-.04a1.146,1.146,0,0,1,.313,0c.28.048.479.075.621.111l.041.009h.184c-.009.026-.02.056-.033.091a.2.2,0,0,0-.038.087c-.04.277.575.816.579.822.118.1.564.537,1.034,1,.693.682,1.481,1.458,1.776,1.706.418.354.358.68.3.774-.076.128-.218.244-.332.212l-.132-.057c-.184-.085-.434-.2-.617-.035a.363.363,0,0,0-.11.279,1.318,1.318,0,0,0,.1.445,1.341,1.341,0,0,1,.048.17c-.076.135-.366.142-.553.033a5.909,5.909,0,0,1-.593-.48L79.7,362.9a3.438,3.438,0,0,0-1.362-.548,1.7,1.7,0,0,1-.275-.092c-.071-.029-.141-.054-.208-.076a1.446,1.446,0,0,1-.582-.962c-.029-.128-.112-.186-.129-.015a1.969,1.969,0,0,0,.33,1.381,2.857,2.857,0,0,0,.4.532l.2.251a5.781,5.781,0,0,0,1.886,1.708l.643.337c1.2.6,2.934,1.256,3.632,3.15a4.635,4.635,0,0,1,.094,2.549c-.473-.336-1.091-.747-1.7-1.15-.354-.234-.739-.49-1.09-.728l.232-.118a1.261,1.261,0,0,0,.662-.781c.081-.411-.231-.775-.513-1.231-.664-1.065-2.239-1.3-3.251-1.432l-.683-.107a6.987,6.987,0,0,1-3.125-1.4c-1.089-.971-.94-2.83-.828-3.384.023-.127,0-.4-.1-.11-.151.611-.653,2.7.622,3.838a7.72,7.72,0,0,0,3.409,1.524l.649.1c.928.118,2.394.379,2.944,1.257.237.38.469.647.429.864-.028.144-.182.3-.457.475l-.431.2a4.433,4.433,0,0,1-.66-.518,1.164,1.164,0,0,0-.227-.243c-.742-.592-.407-.229-.467.123-.084.064-.435.074-1.071-.169-.367-.142-.389-.159-.544-.376-.459-.593-.371-.356-.477.146-.038.18-.065.235-.24.216A.987.987,0,0,1,76.934,367.9Zm-1.42-10.267h-.043a.5.5,0,0,0-.428.2.609.609,0,0,0-.032.054,7.5,7.5,0,0,1-.868-.65,1.131,1.131,0,0,1-.257-.288,2.312,2.312,0,0,1,1.092.2l.016.007.014,0a2.706,2.706,0,0,0,.373.062Zm1.732-.228-.01.014-.009.02a.628.628,0,0,1-.2.228l-.286-.9a2.677,2.677,0,0,0,.223-.242l.008-.01.007-.008a2.346,2.346,0,0,1,.767-.808c0,.023.005.04.005.067a1.327,1.327,0,0,1-.044.318A5.261,5.261,0,0,1,77.246,357.409Zm-3.592.411a1.305,1.305,0,0,1-.57-1.051.6.6,0,0,1,.346-.462,2.26,2.26,0,0,1,1.725.109,1.246,1.246,0,0,0,.345.047l.1,0s-.189-.592-.223-.7c.1-.03.418-.133.514-.167l.229.709.082-.071a1.385,1.385,0,0,0,.24-.28,2.229,2.229,0,0,1,1.3-1.04.6.6,0,0,1,.549.172,1.009,1.009,0,0,1,.218.687,2.006,2.006,0,0,1-.066.5,7.687,7.687,0,0,1-.447,1.346c-.038,0-.079-.016-.122-.023a1.073,1.073,0,0,0-.23-.015.411.411,0,0,0-.067.007,5.774,5.774,0,0,0,.492-1.409,1.693,1.693,0,0,0,.054-.41A.637.637,0,0,0,78,355.35a.209.209,0,0,0-.2-.051c-.326.056-.706.388-1.128,1a2.017,2.017,0,0,1-.368.356c.045.136.291.854.291.854s.053.154.1.285h-.04c-.249-.048-.464-.089-.652-.116l-.028-.1-.238-.786-.055,0a2.2,2.2,0,0,1-.56-.064l-.008,0a2.139,2.139,0,0,0-1.539-.142.268.268,0,0,0-.172.213l0,.044a1.125,1.125,0,0,0,.463.733,8.522,8.522,0,0,0,.941.7.139.139,0,0,1-.047.009.835.835,0,0,0-.341-.005,1.021,1.021,0,0,0-.114.036C74.091,358.177,73.877,358.008,73.654,357.821Zm14.008,28.617c-.178.011-.392.044-.619.082-.475.073-1.123.179-1.346,0a.254.254,0,0,1-.082-.216,3.674,3.674,0,0,1,1.2-2.781,9.963,9.963,0,0,0,5.033,3.577l.2,0c-.874.045-1.758.114-2.645.209-.053-.052-.108-.11-.118-.118l-.04-.035A2.221,2.221,0,0,0,87.662,386.438Zm-3.591.916a.641.641,0,0,0,.349-.094.652.652,0,0,0,.269-.459,2.634,2.634,0,0,0-.77-1.956,5.8,5.8,0,0,1,1.852-2.885l.019-.017a12.193,12.193,0,0,0,.751,1.2,4.138,4.138,0,0,0-1.382,3.179.7.7,0,0,0,.248.545c.38.314,1.087.2,1.71.1.214-.033.416-.065.57-.074a2.064,2.064,0,0,1,1.072.477c-1.341.162-2.685.374-4.013.638a1.931,1.931,0,0,1-.5-.381A1.427,1.427,0,0,1,84.071,387.353Zm-3.561-8.862a.73.73,0,0,1,.87.312l.22.383a4.466,4.466,0,0,1,.423.836c.053.337-.9,1.354-1.485,1.666a9.975,9.975,0,0,0-1.1.709.95.95,0,0,0-.186.518.692.692,0,0,0,.023.171.926.926,0,0,0,.561.542,7.139,7.139,0,0,0,1.78.614,2.463,2.463,0,0,1,1.212.578,1.986,1.986,0,0,0,.651.379l.234.059a2.788,2.788,0,0,1,.532,1.357.638.638,0,0,1-.009.1.235.235,0,0,1-.067.153c-.079.051-.283.007-.45-.035l-.169-.04-.143-.032-.2-.029c-.413-.053-.707-.106-.738-.339a3.166,3.166,0,0,0-.051-.313c-.2-.8-.17-.453-.517-.327l-.076.018c-.178.044-.342.017-.895-.276a3.059,3.059,0,0,1-.615-.449,2.544,2.544,0,0,0-.66-.454l-.613-.234a8.1,8.1,0,0,1-1.024-.421l-.05-.026c-.285-.15-.669-.356-.729-.624a.676.676,0,0,1,.191-.528,2.991,2.991,0,0,1,.7-.765c.086-.041.392-.3.318-.515-.06-.182-.246-.384-.877-.278a2.458,2.458,0,0,1-1.557-.29l-.063-.026a14.239,14.239,0,0,1,.605-1.337,4.707,4.707,0,0,1,.511-.781l.13-.144A9.666,9.666,0,0,0,80.51,378.491Zm3.127-2.732c-.179.331-.228.421-.505.521a.3.3,0,0,1-.246-.006.718.718,0,0,0-.5,0c-.655.239-.635.587-.6,1.067l.018.313a1.127,1.127,0,0,0,.118.5.983.983,0,0,0,.223.245.771.771,0,0,0,.722.018c.07-.033.294-.111.527-.19.313-.109.677-.231.971-.352a13.666,13.666,0,0,0,1.207,3.644l-.111.108a6.156,6.156,0,0,0-1.978,3.076,1.629,1.629,0,0,1-.354-.234,2.925,2.925,0,0,0-1.44-.68,7.181,7.181,0,0,1-1.66-.579c-.172-.078-.28-.167-.306-.251a.389.389,0,0,1,.1-.3,4.745,4.745,0,0,1,.94-.552c.473-.257,1.841-1.424,1.725-2.152a3.88,3.88,0,0,0-.48-1l-.217-.376a1.17,1.17,0,0,0-1.381-.54,10.811,10.811,0,0,1-2.8.191,3.579,3.579,0,0,1,2.039-.8,4.352,4.352,0,0,0,2.421-1.165,9.378,9.378,0,0,0,1.582-2.07c.019-.033.033-.064.052-.1,0,.054-.008.108-.011.17l-.01.135A4.987,4.987,0,0,1,83.638,375.759Zm-11.869,11.1L71.7,386.8l-.434-.367c-.244-.208-.52-.44-.6-.522a1.911,1.911,0,0,1-.169-.836,1.584,1.584,0,0,1,.009-.172,6.037,6.037,0,0,1,.128-.673s.024-.113.035-.171a1.1,1.1,0,0,1,.657-.1,3.135,3.135,0,0,0,1.46-.064,1.348,1.348,0,0,0,.842-.92,2.4,2.4,0,0,0,1.711-.8,3.474,3.474,0,0,0,.444-.857l.046.02a2.882,2.882,0,0,0,1.819.32c.073-.011.126-.018.176-.02a3.834,3.834,0,0,0-.76.845,1.234,1.234,0,0,0-.293.732.748.748,0,0,0,.02.174c.1.479.6.739.959.932l.053.027a7.928,7.928,0,0,0,1.082.447l.587.227a2.023,2.023,0,0,1,.541.378,3.64,3.64,0,0,0,.7.505c.554.294.862.409,1.223.316l.043-.006c.016.081.031.2.037.245.079.6.713.679,1.132.734l.184.024.2.047a2.178,2.178,0,0,0,.355.66s.153.119.268.209c-1.338.283-2.649.617-3.92,1l-1.289-.968H72.3v-.035A1.393,1.393,0,0,0,71.769,386.861Zm38.005-6.649c0,.028.018.06.026.1a2.415,2.415,0,0,0-.225.2c-.372.168-.922-.221-1.2-.414l-.034-.024c-.592-.456-1.128-.554-.266.258l.035.024a3.278,3.278,0,0,0,1.118.617,1.51,1.51,0,0,0,.153,1.471l.048.084a1.032,1.032,0,0,0,.21.263c.158.161.234.237.133.492-.146.366-1.062.359-1.4.357l-.1,0a6.894,6.894,0,0,0-1.938.519,3.216,3.216,0,0,0-1.121,1.19,4.548,4.548,0,0,1-.413.536.181.181,0,0,1-.14.029.233.233,0,0,1-.162-.143l-.112-.375c-.082-.377-.012-.578-.464-.256a.242.242,0,0,1-.238,0c-.11-.07-.231-.189-.178-.292.009-.015.1-.192.1-.192.282-.516.085-.5-.359-.454l0,0a.674.674,0,0,0-.105.014c-.056.011-.239-.1-.311-.308-.09-.248.028-.468.334-.635a2.436,2.436,0,0,1,.615-.228,3.594,3.594,0,0,1,.508-.085,9.509,9.509,0,0,1,1.361-.021l.381.012a1.61,1.61,0,0,0,1.231-.417.653.653,0,0,0,.1-.6,2.561,2.561,0,0,0-.682-.984,5.762,5.762,0,0,1-.573-.674,2.54,2.54,0,0,1-.052-2.425.985.985,0,0,1,.392-.528c.11-.044.235,0,.412.082l.125.053a6.531,6.531,0,0,0,3.325-.05,1.212,1.212,0,0,1-.1.258A5.46,5.46,0,0,0,109.774,380.212Zm-8.911,6.684c.158.009.362.041.573.074.626.1,1.33.213,1.711-.1a.7.7,0,0,0,.249-.545,3.331,3.331,0,0,0-.051-.878.667.667,0,0,0,.627.147c.023.065.044.152.062.218l.017.066a.676.676,0,0,0,.514.475.492.492,0,0,0,.194.007,2.685,2.685,0,0,1-.451,1.271,2.872,2.872,0,0,1-.509.369c-1.318-.26-2.65-.469-3.979-.629A1.879,1.879,0,0,1,100.862,386.9ZM102,383.128a12.367,12.367,0,0,0,.75-1.2l.037.037c.206.2.443.42.679.691a2.738,2.738,0,0,0-.523.212,1.059,1.059,0,0,0-.57.673C102.234,383.374,102.1,383.237,102,383.128Zm.942,3.172a.262.262,0,0,1-.085.216c-.22.183-.87.078-1.344,0-.227-.038-.44-.071-.618-.082a2.225,2.225,0,0,0-1.591.711c-.051.045-.107.1-.153.148-.879-.09-1.759-.161-2.626-.2h.155a9.962,9.962,0,0,0,5.044-3.587A3.7,3.7,0,0,1,102.939,386.3Zm10.911,1.868h-4.227l-1.232.975c-1.286-.386-2.613-.724-3.963-1.01a1.924,1.924,0,0,0,.23-.207,3.424,3.424,0,0,0,.59-1.856.137.137,0,0,0,.018-.018l.276-.394a3.307,3.307,0,0,1,.965-1.088,6.642,6.642,0,0,1,1.758-.482l.1,0c.51,0,1.574.014,1.837-.646a.807.807,0,0,0-.233-.983.757.757,0,0,1-.124-.148l-.06-.109a.973.973,0,0,1,.074-1.334c.011-.008.025-.013.038-.023a.2.2,0,0,0,.072-.078,5.8,5.8,0,0,0,1.653,2.364,4.9,4.9,0,0,0,2.432,1.117,7.308,7.308,0,0,1,1.189.2,1,1,0,0,1,.4.7,1.15,1.15,0,0,1-.475,1.2,2.7,2.7,0,0,0-1.324,1.72C113.84,388.1,113.848,388.133,113.85,388.167Zm-6.518-13.015.006.007a3.807,3.807,0,0,0,1.815.8,4.582,4.582,0,0,1,1.177.436,1.7,1.7,0,0,1,.058.516,6.387,6.387,0,0,1-3.247.111l-.1-.042a.962.962,0,0,0-.764-.088,1.316,1.316,0,0,0-.649.777,2.989,2.989,0,0,0,.1,2.865,6.023,6.023,0,0,0,.617.728,2.261,2.261,0,0,1,.573.791.209.209,0,0,1-.023.2,1.216,1.216,0,0,1-.868.236l-.363-.011a8.746,8.746,0,0,0-1.7.059,10,10,0,0,0-.87-.9l-.129-.125a13.921,13.921,0,0,0,1.354-4.688.617.617,0,0,0,.193-.047c.026.039.053.073.053.073a1.074,1.074,0,0,0,.852.384c.413-.044.729-.686.782-1.26.028-.287.115-.322.312-.4l.164-.072.254-.123C107.3,375.189,106.876,375.39,107.331,375.152Zm-22.286-.235a10.054,10.054,0,0,1,.173-1.422c.062-.3.119-.573.145-.787a1.033,1.033,0,0,0-.316-1.036,13.094,13.094,0,0,1,2.2-4.536,8.5,8.5,0,0,1,14.036,0,13.364,13.364,0,0,1,2.515,6.039l-.237.223a2.37,2.37,0,0,0-.763.967l-.01.035a2.72,2.72,0,0,0-.172.731.552.552,0,0,0,.075.293.687.687,0,0,0,.512.36c.037,0,.065.124.065.216,0,.012,0,.024,0,.038a.3.3,0,0,0-.007.07c0,.181.086.445.524.622.027.01.057.016.084.027-.628,5.754-4.7,10.226-9.6,10.226-4.65,0-8.542-4.008-9.475-9.317a.973.973,0,0,0,.325-1.031l-.019-.182A13.81,13.81,0,0,1,85.045,374.917Zm4.375-13.56a2.218,2.218,0,0,0-.147-.2.889.889,0,0,0,.023-.19.836.836,0,0,0-.839-.836.9.9,0,0,0-.166.015.946.946,0,0,0,.1-.44.98.98,0,0,0-.976-.977.653.653,0,0,0-.09.005,1.159,1.159,0,0,0,.207-.662,1.169,1.169,0,0,1-.192-2.161,1.193,1.193,0,0,0-.056-.352,1.226,1.226,0,0,0,.6.149,1.265,1.265,0,0,0,1.249-1.066.974.974,0,0,0,.8.418.984.984,0,0,0,.782-.391.835.835,0,0,0,1.607.151l.005,0,.327,1.756a4.992,4.992,0,0,0-3.05-.867,1.774,1.774,0,0,0-1.4.867,2.225,2.225,0,0,0,.418,2.349,9.684,9.684,0,0,0,1.817,2.007l.017.017C90.111,361.073,89.763,361.209,89.42,361.358Zm-.963,0a.381.381,0,1,1,.381-.382A.38.38,0,0,1,88.457,361.355Zm-1.038-1.123a.518.518,0,1,1,.52-.52A.519.519,0,0,1,87.419,360.233Zm-1.053-1.443a.712.712,0,1,1,.711-.711A.713.713,0,0,1,86.366,358.789Zm-.906-2.872a.712.712,0,1,1,.715.713A.715.715,0,0,1,85.46,355.918Zm2.43-2.277a.81.81,0,1,1-.811.81A.811.811,0,0,1,87.89,353.64Zm2.049-.068a.518.518,0,1,1-.519.518A.516.516,0,0,1,89.939,353.572Zm1.606.581a.379.379,0,1,1,0,.758.379.379,0,0,1,0-.758Zm2-.439c0-.114.14-.133.223-.133h1.015c.081,0,.222.019.222.133a.926.926,0,0,0,.816.865l-1.074,5.773,0,.006c-.157-.006-.313-.01-.471-.01s-.3,0-.457.01v-.006l-1.072-5.776A.924.924,0,0,0,93.544,353.715Zm1.658,6.668.006,0,.6-3.236a5.014,5.014,0,0,1,3.087-1.035,1.319,1.319,0,0,1,1.047.64,1.9,1.9,0,0,1-.389,1.978,8.321,8.321,0,0,1-1.952,2.064l-.01.012A12.1,12.1,0,0,0,95.2,360.382Zm-4.228.405a8.168,8.168,0,0,1-1.952-2.061,1.9,1.9,0,0,1-.392-1.978,1.323,1.323,0,0,1,1.05-.64,5.011,5.011,0,0,1,3.086,1.035l.6,3.236,0,0a12.2,12.2,0,0,0-2.381.417Zm7.8,3.456a8.634,8.634,0,0,0-8.983-.02,4.306,4.306,0,0,0,.136-1.076,10.132,10.132,0,0,1,8.725.027A3.943,3.943,0,0,0,98.773,364.243Zm-.074-1.554a10.558,10.558,0,0,0-8.806-.03,2.744,2.744,0,0,0-.273-.888,11.774,11.774,0,0,1,9.378.023A2.6,2.6,0,0,0,98.7,362.689Zm-2.458-7.859.01-.009a.836.836,0,0,0,1.611-.145.979.979,0,0,0,.781.391.966.966,0,0,0,.8-.418,1.271,1.271,0,0,0,1.251,1.066,1.234,1.234,0,0,0,.6-.149,1.134,1.134,0,0,0-.055.352,1.171,1.171,0,0,1-.193,2.161,1.152,1.152,0,0,0,.207.662.63.63,0,0,0-.089-.005.975.975,0,0,0-.871,1.416.919.919,0,0,0-.168-.015.837.837,0,0,0-.838.836,1,1,0,0,0,.029.221c-.042.041-.117.117-.167.171a11.118,11.118,0,0,0-1.041-.4l.018-.022a9.736,9.736,0,0,0,1.815-2.007,2.209,2.209,0,0,0,.417-2.349,1.772,1.772,0,0,0-1.4-.867,4.986,4.986,0,0,0-3.049.867Zm.8-.677a.379.379,0,1,1-.379.381A.38.38,0,0,1,97.036,354.153Zm1.606-.581a.518.518,0,1,1-.517.518A.521.521,0,0,1,98.643,353.572Zm2.049.068a.81.81,0,1,1-.808.81A.813.813,0,0,1,100.691,353.64Zm1.72,1.564a.713.713,0,1,1-.713.714A.715.715,0,0,1,102.411,355.2Zm.518,2.875a.713.713,0,1,1-.711-.713A.712.712,0,0,1,102.929,358.079Zm-1.765,2.154a.518.518,0,1,1,.517-.52A.52.52,0,0,1,101.164,360.233Zm-1.039,1.123a.381.381,0,1,1,.381-.382A.381.381,0,0,1,100.125,361.355Zm5.772,10.811a4.17,4.17,0,0,1-.646.272,4.505,4.505,0,0,0-1.046.4,14.515,14.515,0,0,0-.59-2.273l2.015.129A5.38,5.38,0,0,0,105.9,372.167Zm-3.108-4.46a1.607,1.607,0,0,0,1.386,1.356,1.436,1.436,0,0,0,1.041-.531.854.854,0,0,0,.757.8,2.351,2.351,0,0,0-.312.9l-2.217-.139a13.451,13.451,0,0,0-1.21-2.393A2.994,2.994,0,0,0,102.789,367.706Zm3.181-2.139.968-.06a3.564,3.564,0,0,0,3.372-2.447l.017-.051a2.943,2.943,0,0,0,.044-1.059l-.035-.3-.277.11a8.874,8.874,0,0,1-1.519.379,2.9,2.9,0,0,0-1.553.534l-.032.024-.023.032a.106.106,0,0,1-.07.048c-.033,0-.1-.038-.18-.15a7.753,7.753,0,0,0-.5-.625s-.024-.028-.042-.053c.007-.053.075-.164.372-.242l.33-.073c.383-.075.781-.153.8-.772v-.022a.6.6,0,0,0-.243-.478,2.193,2.193,0,0,0-1.577-.219l-.01,0-.01.006a.3.3,0,0,1-.06.014.5.5,0,0,1-.092-.2.883.883,0,0,1-.042-.248c0-.1.031-.124.051-.139a.527.527,0,0,0,.189-.412,1.283,1.283,0,0,0-.158-.532l-.046-.1a.835.835,0,0,1-.073-.265.145.145,0,0,1,.013-.067.3.3,0,0,1,.206-.1,3.289,3.289,0,0,1,.852-.033,2.571,2.571,0,0,0,.569,0,2.23,2.23,0,0,0,.6-.238,1.607,1.607,0,0,1,.555-.211c.23-.013.739,0,1.146.009l.588.01a4.575,4.575,0,0,0,2.163-.873.406.406,0,0,1,.16-.112.1.1,0,0,0,.012.014,2.205,2.205,0,0,1,.161.6,3,3,0,0,0,.288.945,3.841,3.841,0,0,0,.649.755,4.743,4.743,0,0,1,.408.429,4.267,4.267,0,0,1,.366.752,3.838,3.838,0,0,0,.654,1.193c.3.286,1.046.992,1.816.836a.388.388,0,0,1-.023.041l-.222.2c-.278.235-.564.477-.564.759v.03a1.312,1.312,0,0,0,.189.612l.017.029a.24.24,0,0,1,.052.135.486.486,0,0,1-.173.305c-.293.306-.389.5-.389.693a1,1,0,0,0,.06.306l.012.033a1.151,1.151,0,0,1,.07.269c0,.011,0,.016,0,.025l-.011.007-.076.041a1.115,1.115,0,0,1-.3.133l-.04.008c-.521.114-.783.4-.783.853a.694.694,0,0,0,0,.084l.01.164c.007.1.014.2.014.272a.23.23,0,0,1,0,.057.65.65,0,0,1-.1.039l-.129.029c-.306.074-.773.182-.814,1.038l-.013.339c-.02.658-.053.969-.257.994a.78.78,0,0,1-.7-.374c-.036-.087-.11-.376-.123-.417-.287-.88-.192-.671-.606.106-.061.107-.124.251-.217.424a1.729,1.729,0,0,1-.679.8l-.1.053a.113.113,0,0,1-.1.005c-.05-.019-.119-.115-.167-.318a9.019,9.019,0,0,1-.184-1.222c-.024-.618.631-1.263-.7-.207,0,0-.167.111-.26.17-.175.107-1.184.553-1.47.672-.1.041-.436.066-.44-.02a.412.412,0,0,1,.016-.109.308.308,0,0,1,.008-.038c.157-.556.416-.438-.5-.349l-.437.024-.137.009a1.029,1.029,0,0,1-.721-.1.515.515,0,0,1-.135-.392,1.328,1.328,0,0,1,1.032-1.357c.559-.112,2.723-.345,3.681-.429a3.727,3.727,0,0,0,2.963-1.642,6.9,6.9,0,0,0,.362-3.444c-.077-.351-.44-.895-.22.1a6.112,6.112,0,0,1-.538,3.107,3.3,3.3,0,0,1-2.608,1.417c-.945.085-3.137.315-3.732.433a1.778,1.778,0,0,0-1.265,1.069c-.209.3-.687.971-1.155.958-.546-.014-.972-.669-.972-1.22C103.166,365.72,103.985,365.676,105.969,365.567ZM123.9,368.4a1.09,1.09,0,0,1,.135-.5,1.141,1.141,0,0,0,.2-.56.455.455,0,0,0-.062-.234c-.162-.275-.529-.263-.8-.253h-.163a3.706,3.706,0,0,1-.439-.161,4.479,4.479,0,0,0-.952-.315,2.161,2.161,0,0,0-.775.121,2.859,2.859,0,0,1-.959.14,4.29,4.29,0,0,1-.936-.307,3.066,3.066,0,0,0-2.236.059,3.379,3.379,0,0,0-1.788,1.59,4.988,4.988,0,0,0,.173,4.383c.247.457,1.123,1.936,1.584,2.567a.256.256,0,0,0,.048.046.065.065,0,0,1-.016.007,1.518,1.518,0,0,0-.756,1.491,2.637,2.637,0,0,0,.016.3c.03.246.112.4.242.455a.272.272,0,0,0,.271-.035,1.472,1.472,0,0,1,.939-.24,1.34,1.34,0,0,1,1.3,1.276,1.813,1.813,0,0,1-1.65,1.816,1.331,1.331,0,0,1-1.412-.83,4.937,4.937,0,0,0-.49-1.821,1.618,1.618,0,0,0-.213-.244c-.264-.25-.658-.631-.754-2.3a13.157,13.157,0,0,0-1.4-4.747,1.053,1.053,0,0,0,.366.022c.617-.076.639-.767.66-1.435l.013-.333c.027-.51.189-.547.459-.612l.163-.041c.35-.108.423-.271.423-.547,0-.084-.006-.182-.013-.289l-.013-.162v-.052c0-.26.15-.346.421-.407l.053-.011a1.42,1.42,0,0,0,.411-.175l.075-.042a.45.45,0,0,0,.248-.425,1.371,1.371,0,0,0-.09-.424l-.01-.032a.481.481,0,0,1-.037-.153c0-.089.06-.172.259-.383a.918.918,0,0,0,.3-.625.67.67,0,0,0-.126-.38l-.01-.016a.9.9,0,0,1-.124-.4c.019-.1.277-.312.4-.42l.266-.239a.738.738,0,0,0,.179-.474.5.5,0,0,0-.091-.305.275.275,0,0,0-.357-.066l.018-.007c-.508.245-1.1-.227-1.565-.666a3.7,3.7,0,0,1-.549-1.041,4.125,4.125,0,0,0-.431-.858,4.83,4.83,0,0,0-.446-.474,3.385,3.385,0,0,1-.573-.657,2.735,2.735,0,0,1-.232-.8,2.353,2.353,0,0,0-.223-.758.466.466,0,0,0-.355-.235.735.735,0,0,0-.54.261,4.249,4.249,0,0,1-1.829.728l-.577-.01c-.435-.01-.932-.023-1.184-.009a1.959,1.959,0,0,0-.739.262,1.732,1.732,0,0,1-.461.19,2.116,2.116,0,0,1-.471,0,3.628,3.628,0,0,0-.968.04.712.712,0,0,0-.519.334.857.857,0,0,0,.036.719l.06.134c.1.206.148.337.084.392a.807.807,0,0,0-.15.868.735.735,0,0,0,.327.476.515.515,0,0,0,.424.006l-.02.007a1.744,1.744,0,0,1,1.171.134.147.147,0,0,1,.07.126c-.011.246-.04.259-.432.337l-.358.077a.894.894,0,0,0-.684.5.47.47,0,0,0,.021.414l.1.125a6.577,6.577,0,0,1,.471.587.671.671,0,0,0,.559.345.541.541,0,0,0,.406-.207,2.439,2.439,0,0,1,1.3-.436,8.65,8.65,0,0,0,1.364-.307c0,.047,0,.089,0,.138a1.41,1.41,0,0,1-.048.431l-.019.056a3.067,3.067,0,0,1-2.967,2.136l-.962.059c-1.911.1-3.189.173-3.189,2.137v0a2.615,2.615,0,0,1-.849-.073l-.032-.01c-.076-.1-.151-.207-.228-.308a10.809,10.809,0,0,0-2.241-2.2,2.766,2.766,0,0,1,.272-2.981.828.828,0,0,0,.449.131.84.84,0,0,0,.839-.839.867.867,0,0,0-.064-.32,1.01,1.01,0,0,0,.264.039.981.981,0,0,0,.978-.978.968.968,0,0,0-.129-.483,5.931,5.931,0,0,1,1.568-3.312,1.169,1.169,0,0,0-1.7-1.045,1.209,1.209,0,0,0,.074-.422,1.266,1.266,0,0,0-2.375-.614.976.976,0,0,0-1.913.153.824.824,0,0,0-.635-.3.846.846,0,0,0-.773.514h-.221a.531.531,0,0,1-.575-.493c0-.308-.283-.525-.684-.525H93.768c-.4,0-.684.216-.684.525a.534.534,0,0,1-.575.493h-.191a.843.843,0,0,0-.773-.514.823.823,0,0,0-.633.3A.976.976,0,0,0,89,353.836a1.267,1.267,0,0,0-2.376.614,1.243,1.243,0,0,0,.073.422,1.152,1.152,0,0,0-.52-.125,4.433,4.433,0,0,1-.981,3.332,1.174,1.174,0,0,0,1.173,1.172,1.187,1.187,0,0,0,.205-.02.944.944,0,0,0-.129.483.979.979,0,0,0,.977.978,1.03,1.03,0,0,0,.264-.039.838.838,0,0,0,1.264,1c.593.447.7,1.895.212,2.985a10.668,10.668,0,0,0-2.279,2.221A13.413,13.413,0,0,0,84.9,370.6a4.288,4.288,0,0,0-.243-2.215c-.849-2.019-2.65-2.781-3.847-3.382l-.622-.324a5.37,5.37,0,0,1-1.747-1.588l-.218-.275-.027-.035c.023.007.05.018.072.021a3.012,3.012,0,0,1,1.157.459l.373.312a5.569,5.569,0,0,0,.658.527,1.147,1.147,0,0,0,1.121-.046.4.4,0,0,0,.135-.325,1.127,1.127,0,0,0-.083-.383c-.019-.057-.033-.1-.043-.139l.043.021.2.083a.789.789,0,0,0,.85-.415,1.078,1.078,0,0,0-.395-1.361c-.285-.241-1.1-1.041-1.75-1.684-.517-.512-.927-.914-1.054-1.025a3.136,3.136,0,0,1-.4-.438.55.55,0,0,0,0-.545.44.44,0,0,0-.44-.122l-.065,0a.116.116,0,0,0-.026,0c-.019-.007-.038-.009-.061-.016l-.02.009a.1.1,0,0,0-.031-.007,8.348,8.348,0,0,0,.428-1.319,1.71,1.71,0,0,0-.257-1.6,1.043,1.043,0,0,0-.948-.311,2.408,2.408,0,0,0-1.368.933l-.122-.369-.236.076-1.125.362.131.4a2.462,2.462,0,0,0-1.713.029,1.046,1.046,0,0,0-.588.806,1.723,1.723,0,0,0,.725,1.444c.191.162.362.292.51.4-.03.025-.058.046-.082.062-.157.134-.3.287-.436.423l-.172.184a5.322,5.322,0,0,1-2.772,1.314.285.285,0,0,0-.258.238c-.038.239.214.519.627.7s.5.726.3,1.83l-.009.042a.381.381,0,0,0,.073.383c.14.13.346.1.706.005l.067-.018.143-.04c-.016.058-.033.14-.049.2l-.021.108-.02.11a4.828,4.828,0,0,0-.106.853,1.279,1.279,0,0,0,.072.457,4.446,4.446,0,0,0,.68,1.1.512.512,0,0,0,.382.171.606.606,0,0,0,.42-.253.02.02,0,0,0,.008-.014,2.439,2.439,0,0,1,.1.238l.007.021a2.155,2.155,0,0,0,1.5,1.513.781.781,0,0,0,.622,0,.686.686,0,0,0,.3-.461,2.722,2.722,0,0,0,.051-.357.779.779,0,0,1,.008-.092c.02.022.041.042.065.072a5.513,5.513,0,0,1,.985,3.017,4.021,4.021,0,0,1-.131,1.019,8.388,8.388,0,0,1-.488,1.313c-.116.26-.2.509-.293.752a8.523,8.523,0,0,1-1.644,1.074l-.318.174a5.2,5.2,0,0,0-2.112,3.708.992.992,0,0,0-.006.1c-.886.3-1.472.26-1.788-.132-.675-.834-.163-1.663.572-2.665l.229-.315.23-.308s.2-.25.219-.277c.009.053.019.1.028.165l.094.393.077.314a.377.377,0,0,0,.311.339c.1.013.274.192.732-.66.1-.184.282-.5.493-.819l.345-.542a.88.88,0,0,0-.293-1.385c-.223-.156-.21-.236-.013-.612l.057-.115a5.178,5.178,0,0,0-.151-4.333c-.746-1.149-1.8-2.22-3.222-1.895a6.365,6.365,0,0,0-1.875.794,4.518,4.518,0,0,1-1.7.679,14.039,14.039,0,0,0-1.586.442c-.143.046-.342.112-.353.323a.148.148,0,0,0,0,.019c0,.227.247.338.558.481a1.663,1.663,0,0,1,.6.389,7.831,7.831,0,0,1-1,1.124.413.413,0,0,0-.212.349.388.388,0,0,0,.006.066c.044.232.28.381.707.454h.007l-.007.074a2.753,2.753,0,0,0,.2,1.678l.064.1a6.308,6.308,0,0,1,.8,1.5,1.121,1.121,0,0,1-.056.34.79.79,0,0,0,0,.6.435.435,0,0,0,.286.193c.492.115.679-.282.827-.6l.083-.172c.2-.4.476-.954.809-1.513l.22-.336a3.944,3.944,0,0,0,.8-2.4l.165.008a.761.761,0,0,0,.292,0l.089-.018c.17-.035.4-.081.455-.3s-.133-.393-.32-.54a1.757,1.757,0,0,1-.365-1.445c.1-.358.269-.553.521-.594a2.2,2.2,0,0,1,1.693,1.009,2.775,2.775,0,0,1,.464,1.523,2.13,2.13,0,0,1-.046.459c-.117.525-.218.578-.222.578a.584.584,0,0,1-.136-.031l-.171-.042a1.482,1.482,0,0,0-1.084.238l-.09.065c-.218.148-.517.347-.477.651.037.272.33.4.546.477a.319.319,0,0,1,.23.223,1.962,1.962,0,0,1-.5,1.314l-.135.162-.323.431c-1.3,1.662-1.715,3.269-1.156,4.408.339.689,1.185,1.505,3.29,1.51a2.849,2.849,0,0,1-.4,1.062,2.251,2.251,0,0,1-1.854.95l-.152.016-.12.006a.619.619,0,0,0-.471.183c-.183.206-.235.6-.182,1.4a6.7,6.7,0,0,1-.144,2.073,4.527,4.527,0,0,0-.084.5,2.912,2.912,0,0,1-.069.372,2.247,2.247,0,0,0-.079.508.615.615,0,0,0,.1.366.564.564,0,0,0,.424.237l.482.029c.1,0,.229.006.311.017a.08.08,0,0,0-.007.015c-.013.037-.026.073-.04.107H64.229l1.7,2.953c-.107.206-1.577,3.07-1.577,3.07H78.822l.817,2.785A44.374,44.374,0,0,1,94.286,394.4h.027a44.484,44.484,0,0,1,14.66,2.566l.813-2.78h14.239s-1.472-2.864-1.577-3.07c.112-.2,1.7-2.953,1.7-2.953H118a5.818,5.818,0,0,0,.067-1.131c-.016-.166-.076-.467-.137-.781a8.033,8.033,0,0,1-.138-.816c0-.313.007-1.285.033-1.5.074-.642-.612-1.155-.94-1.4l-.109-.082a6.366,6.366,0,0,1-.855-.873,3.093,3.093,0,0,0,3.631-.981,5.452,5.452,0,0,0,.733-1.328l.026-.055a4.18,4.18,0,0,1,.553-.891c.31-.277,1.613-1.985,1.2-2.674-.283-.468-1.032-.2-1.277-.106-.138.048-.208-.043-.3-.4-.08-.3-.251-1.061-.264-1.172l0-.027c-.016-.137-.042-.425-.272-.538a.492.492,0,0,0-.5.065.282.282,0,0,1-.228.057.321.321,0,0,1-.163-.177c-.064-.154-.175-.523-.24-.744l-.054-.17-.028-.116c-.035-.153-.081-.365-.289-.42s-.366.1-.509.258c-.11.122-.208.242-.3.36a2.954,2.954,0,0,1-1.086-2.962,2.015,2.015,0,0,1,1-1.618,2.471,2.471,0,0,1,1.849.02l.113.06a1.221,1.221,0,0,1,.2.111.455.455,0,0,1-.068.059l-.023.013-.017.02a1.635,1.635,0,0,0-.463,1.131,4.143,4.143,0,0,0,1.377,2.471v.014a4.1,4.1,0,0,0,.784,2.665,1.051,1.051,0,0,0,.813.271,4.557,4.557,0,0,0,1.326-.53c.122-.055.478-.41-.095-.559s-.425-.668-.4-.928a4.747,4.747,0,0,1,.452-1.319,1.312,1.312,0,0,0,.109-.559,2.935,2.935,0,0,0-.208-1.009,1.314,1.314,0,0,0,.3-.068.8.8,0,0,0,.555-.508.5.5,0,0,0,.02-.143.664.664,0,0,0-.168-.424A.527.527,0,0,1,123.9,368.4Z" transform="translate(-64.229 -353.113)" fill="#0074c2" clip-rule="evenodd" />
    </clipPath>
    <clipPath id="clip-path-63">
      <path id="Path_4529" d="M158.547,364.113a1.34,1.34,0,0,0-1.009-.183.24.24,0,0,0-.2.206c0,.12.252.349.4.444a.685.685,0,0,0,.554.049,2.74,2.74,0,0,1,.446-.144c.19-.048.154-.144.107-.179a3.487,3.487,0,0,1-.291-.193" transform="translate(-157.333 -363.9)" fill="#0074c2" clip-rule="evenodd" />
    </clipPath>
    <clipPath id="clip-path-64">
      <path id="Path_4530" d="M92.742,367.224a4.358,4.358,0,0,0,.574.318c.325.132.369-.009.466-.327s-.1-.316-.22-.316-.449.02-.678.044c-.475.054-.248.239-.143.282" transform="translate(-92.595 -366.898)" fill="#0074c2" clip-rule="evenodd" />
    </clipPath>
  </defs>
  <g id="Group_2219" transform="translate(-64.229 -353.114)">
    <g id="Group_2220" transform="translate(137.424 358.447)">
      <g id="Group_2219-2" transform="translate(0 0)" clip-path="url(#clip-path)">
        <rect id="Rectangle_5219" width="4.012" height="36.486" transform="translate(-1.731 -1.731)" fill="#0074c2" />
      </g>
    </g>
    <g id="Group_2222" transform="translate(149.24 361.314)">
      <g id="Group_2221" clip-path="url(#clip-path-2)">
        <rect id="Rectangle_5221" width="11.653" height="14.792" transform="translate(-1.731 -1.731)" fill="#0074c2" />
      </g>
    </g>
    <g id="Group_2224" transform="translate(158.198 361.313)">
      <g id="Group_2223" transform="translate(0 0)" clip-path="url(#clip-path-3)">
        <rect id="Rectangle_5222" width="13.512" height="14.793" transform="translate(-1.731 -1.731)" fill="#0074c2" />
      </g>
    </g>
    <g id="Group_2226" transform="translate(169.196 361.314)">
      <g id="Group_2225" transform="translate(0 0)" clip-path="url(#clip-path-4)">
        <rect id="Rectangle_5223" width="7.898" height="14.792" transform="translate(-1.731 -1.731)" fill="#0074c2" />
      </g>
    </g>
    <g id="Group_2228" transform="translate(174.58 361.313)">
      <g id="Group_2227" transform="translate(0)" clip-path="url(#clip-path-5)">
        <rect id="Rectangle_5224" width="11.563" height="14.792" transform="translate(-1.73 -1.731)" fill="#0074c2" />
      </g>
    </g>
    <g id="Group_2230" transform="translate(183.812 361.314)">
      <g id="Group_2229" transform="translate(0 0)" clip-path="url(#clip-path-6)">
        <rect id="Rectangle_5225" width="7.898" height="14.792" transform="translate(-1.731 -1.731)" fill="#0074c2" />
      </g>
    </g>
    <g id="Group_2232" transform="translate(189.197 361.314)">
      <g id="Group_2231" transform="translate(0)" clip-path="url(#clip-path-7)">
        <rect id="Rectangle_5226" width="11.652" height="14.792" transform="translate(-1.731 -1.731)" fill="#0074c2" />
      </g>
    </g>
    <g id="Group_2234" transform="translate(202.171 361.313)">
      <g id="Group_2233" clip-path="url(#clip-path-8)">
        <rect id="Rectangle_5227" width="14.346" height="14.792" transform="translate(-1.731 -1.731)" fill="#0074c2" />
      </g>
    </g>
    <g id="Group_2236" transform="translate(214.321 361.136)">
      <g id="Group_2235" transform="translate(0 0)" clip-path="url(#clip-path-9)">
        <rect id="Rectangle_5228" width="11.387" height="15.166" transform="translate(-1.731 -1.731)" fill="#0074c2" />
      </g>
    </g>
    <g id="Group_2238" transform="translate(223.388 361.313)">
      <g id="Group_2237" transform="translate(0)" clip-path="url(#clip-path-10)">
        <rect id="Rectangle_5229" width="13.071" height="14.989" transform="translate(-1.73 -1.731)" fill="#0074c2" />
      </g>
    </g>
    <g id="Group_2240" transform="translate(233.319 361.313)">
      <g id="Group_2239" transform="translate(0)" clip-path="url(#clip-path-11)">
        <rect id="Rectangle_5230" width="13.072" height="14.989" transform="translate(-1.731 -1.731)" fill="#0074c2" />
      </g>
    </g>
    <g id="Group_2242" transform="translate(243.249 361.314)">
      <g id="Group_2241" transform="translate(0 0)" clip-path="url(#clip-path-12)">
        <rect id="Rectangle_5231" width="7.899" height="14.792" transform="translate(-1.731 -1.731)" fill="#0074c2" />
      </g>
    </g>
    <g id="Group_2251" transform="translate(248.911 361.136)">
      <g id="Group_2250" transform="translate(0 0)" clip-path="url(#clip-path-13)">
        <g id="Group_2249" transform="translate(-0.193 -0.061)">
          <g id="Group_2248">
            <g id="Group_2247" clip-path="url(#clip-path-14)">
              <g id="Group_2246" transform="translate(0.193 0.062)">
                <g id="Group_2245" clip-path="url(#clip-path-15)">
                  <g id="Group_2244" transform="translate(-0.193 -0.062)">
                    <g id="Group_2243" clip-path="url(#clip-path-14)">
                      <rect id="Rectangle_5232" width="10.301" height="15.166" transform="translate(-1.538 -1.669)" fill="#0074c2" />
                    </g>
                  </g>
                </g>
              </g>
            </g>
          </g>
        </g>
      </g>
    </g>
    <g id="Group_2253" transform="translate(149.24 377.252)">
      <g id="Group_2252" transform="translate(0 0)" clip-path="url(#clip-path-17)">
        <rect id="Rectangle_5236" width="7.901" height="14.792" transform="translate(-1.731 -1.731)" fill="#0074c2" />
      </g>
    </g>
    <g id="Group_2255" transform="translate(154.153 377.252)">
      <g id="Group_2254" transform="translate(0 0)" clip-path="url(#clip-path-18)">
        <rect id="Rectangle_5237" width="12.657" height="14.989" transform="translate(-1.731 -1.731)" fill="#0074c2" />
      </g>
    </g>
    <g id="Group_2257" transform="translate(163.701 377.252)">
      <g id="Group_2256" transform="translate(0 0)" clip-path="url(#clip-path-19)">
        <rect id="Rectangle_5238" width="11.467" height="14.792" transform="translate(-1.731 -1.731)" fill="#0074c2" />
      </g>
    </g>
    <g id="Group_2259" transform="translate(172.243 377.252)">
      <g id="Group_2258" transform="translate(0 0)" clip-path="url(#clip-path-20)">
        <rect id="Rectangle_5239" width="11.516" height="14.792" transform="translate(-1.731 -1.731)" fill="#0074c2" />
      </g>
    </g>
    <g id="Group_2261" transform="translate(181.643 377.252)">
      <g id="Group_2260" transform="translate(0 0)" clip-path="url(#clip-path-21)">
        <rect id="Rectangle_5240" width="13.075" height="14.989" transform="translate(-1.731 -1.731)" fill="#0074c2" />
      </g>
    </g>
    <g id="Group_2263" transform="translate(191.103 377.252)">
      <g id="Group_2262" transform="translate(0 0)" clip-path="url(#clip-path-22)">
        <rect id="Rectangle_5241" width="12.658" height="14.989" transform="translate(-1.731 -1.731)" fill="#0074c2" />
      </g>
    </g>
    <g id="Group_2265" transform="translate(199.54 377.074)">
      <g id="Group_2264" transform="translate(0 0)" clip-path="url(#clip-path-23)">
        <rect id="Rectangle_5242" width="12.751" height="14.971" transform="translate(-1.731 -1.731)" fill="#0074c2" />
      </g>
    </g>
    <g id="Group_2267" transform="translate(207.825 377.252)">
      <g id="Group_2266" transform="translate(0 0)" clip-path="url(#clip-path-24)">
        <rect id="Rectangle_5243" width="11.467" height="14.792" transform="translate(-1.731 -1.731)" fill="#0074c2" />
      </g>
    </g>
    <g id="Group_2269" transform="translate(216.369 377.252)">
      <g id="Group_2268" transform="translate(0 0)" clip-path="url(#clip-path-25)">
        <rect id="Rectangle_5244" width="7.897" height="14.792" transform="translate(-1.731 -1.731)" fill="#0074c2" />
      </g>
    </g>
    <g id="Group_2271" transform="translate(221.581 377.074)">
      <g id="Group_2270" clip-path="url(#clip-path-26)">
        <rect id="Rectangle_5245" width="11.386" height="15.166" transform="translate(-1.731 -1.731)" fill="#0074c2" />
      </g>
    </g>
    <g id="Group_2273" transform="translate(230.175 377.252)">
      <g id="Group_2272" transform="translate(0 0)" clip-path="url(#clip-path-27)">
        <rect id="Rectangle_5246" width="12.657" height="14.989" transform="translate(-1.731 -1.731)" fill="#0074c2" />
      </g>
    </g>
    <g id="Group_2275" transform="translate(238.611 377.074)">
      <g id="Group_2274" transform="translate(0 0)" clip-path="url(#clip-path-28)">
        <rect id="Rectangle_5247" width="12.754" height="14.971" transform="translate(-1.731 -1.731)" fill="#0074c2" />
      </g>
    </g>
    <g id="Group_2277" transform="translate(247.51 377.252)">
      <g id="Group_2276" transform="translate(0 0)" clip-path="url(#clip-path-29)">
        <rect id="Rectangle_5248" width="11.561" height="14.792" transform="translate(-1.731 -1.731)" fill="#0074c2" />
      </g>
    </g>
    <g id="Group_2279" transform="translate(90.711 369.108)">
      <g id="Group_2278" clip-path="url(#clip-path-30)">
        <rect id="Rectangle_5249" width="4.907" height="9.92" transform="translate(-1.731 -1.731)" fill="#0074c2" />
      </g>
    </g>
    <g id="Group_2281" transform="translate(80.758 392.929)">
      <g id="Group_2280" transform="translate(0 0)" clip-path="url(#clip-path-31)">
        <rect id="Rectangle_5250" width="4.417" height="5.469" transform="translate(-1.726 -1.731)" fill="#0074c2" />
      </g>
    </g>
    <g id="Group_2283" transform="translate(81.999 392.297)">
      <g id="Group_2282" clip-path="url(#clip-path-32)">
        <rect id="Rectangle_5252" width="5.48" height="5.763" transform="translate(-1.731 -1.731)" fill="#0074c2" />
      </g>
    </g>
    <g id="Group_2285" transform="translate(84.264 391.817)">
      <g id="Group_2284" transform="translate(0 0)" clip-path="url(#clip-path-33)">
        <rect id="Rectangle_5253" width="5.09" height="5.592" transform="translate(-1.731 -1.731)" fill="#0074c2" />
      </g>
    </g>
    <g id="Group_2287" transform="translate(86.582 391.474)">
      <g id="Group_2286" clip-path="url(#clip-path-34)">
        <rect id="Rectangle_5254" width="5.216" height="5.623" transform="translate(-1.731 -1.731)" fill="#0074c2" />
      </g>
    </g>
    <g id="Group_2289" transform="translate(88.869 391.268)">
      <g id="Group_2288" transform="translate(0 0)" clip-path="url(#clip-path-35)">
        <rect id="Rectangle_5255" width="5.247" height="5.521" transform="translate(-1.731 -1.731)" fill="#0074c2" />
      </g>
    </g>
    <g id="Group_2291" transform="translate(91.311 391.076)">
      <g id="Group_2290" clip-path="url(#clip-path-36)">
        <rect id="Rectangle_5256" width="5.135" height="5.501" transform="translate(-1.731 -1.731)" fill="#0074c2" />
      </g>
    </g>
    <g id="Group_2293" transform="translate(93.625 391.062)">
      <g id="Group_2292" transform="translate(0 0)" clip-path="url(#clip-path-37)">
        <rect id="Rectangle_5257" width="5.33" height="5.44" transform="translate(-1.731 -1.731)" fill="#0074c2" />
      </g>
    </g>
    <g id="Group_2295" transform="translate(95.858 391.084)">
      <g id="Group_2294" transform="translate(0)" clip-path="url(#clip-path-38)">
        <rect id="Rectangle_5258" width="5.07" height="5.479" transform="translate(-1.731 -1.731)" fill="#0074c2" />
      </g>
    </g>
    <g id="Group_2297" transform="translate(97.971 391.219)">
      <g id="Group_2296" transform="translate(0 0)" clip-path="url(#clip-path-39)">
        <rect id="Rectangle_5259" width="4.04" height="5.462" transform="translate(-1.727 -1.73)" fill="#0074c2" />
      </g>
    </g>
    <g id="Group_2299" transform="translate(99.21 391.374)">
      <g id="Group_2298" transform="translate(0 0)" clip-path="url(#clip-path-40)">
        <rect id="Rectangle_5261" width="5.358" height="5.55" transform="translate(-1.731 -1.731)" fill="#0074c2" />
      </g>
    </g>
    <g id="Group_2301" transform="translate(101.671 391.696)">
      <g id="Group_2300" clip-path="url(#clip-path-41)">
        <rect id="Rectangle_5262" width="5.374" height="5.687" transform="translate(-1.731 -1.731)" fill="#0074c2" />
      </g>
    </g>
    <g id="Group_2303" transform="translate(103.866 392.304)">
      <g id="Group_2302" transform="translate(0)" clip-path="url(#clip-path-42)">
        <rect id="Rectangle_5263" width="5.281" height="5.65" transform="translate(-1.731 -1.731)" fill="#0074c2" />
      </g>
    </g>
    <g id="Group_2305" transform="translate(106.306 392.775)">
      <g id="Group_2304" transform="translate(0 0)" clip-path="url(#clip-path-43)">
        <rect id="Rectangle_5264" width="4.897" height="5.747" transform="translate(-1.731 -1.731)" fill="#0074c2" />
      </g>
    </g>
    <g id="Group_2307" transform="translate(80.08 390.289)">
      <g id="Group_2306" transform="translate(0 0)" clip-path="url(#clip-path-44)">
        <rect id="Rectangle_5265" width="5.104" height="5.627" transform="translate(-1.731 -1.731)" fill="#0074c2" />
      </g>
    </g>
    <g id="Group_2309" transform="translate(82.566 389.508)">
      <g id="Group_2308" transform="translate(0 0)" clip-path="url(#clip-path-45)">
        <rect id="Rectangle_5266" width="5.449" height="5.739" transform="translate(-1.731 -1.731)" fill="#0074c2" />
      </g>
    </g>
    <g id="Group_2311" transform="translate(85.228 389.213)">
      <g id="Group_2310" transform="translate(0 0)" clip-path="url(#clip-path-46)">
        <rect id="Rectangle_5267" width="4.226" height="5.472" transform="translate(-1.736 -1.731)" fill="#0074c2" />
      </g>
    </g>
    <g id="Group_2313" transform="translate(86.76 388.956)">
      <g id="Group_2312" clip-path="url(#clip-path-47)">
        <rect id="Rectangle_5269" width="5.125" height="5.476" transform="translate(-1.731 -1.731)" fill="#0074c2" />
      </g>
    </g>
    <g id="Group_2315" transform="translate(89.152 388.665)">
      <g id="Group_2314" transform="translate(0)" clip-path="url(#clip-path-48)">
        <rect id="Rectangle_5270" width="4.073" height="5.463" transform="translate(-1.731 -1.731)" fill="#0074c2" />
      </g>
    </g>
    <g id="Group_2317" transform="translate(90.726 388.511)">
      <g id="Group_2316" transform="translate(0 0)" clip-path="url(#clip-path-49)">
        <rect id="Rectangle_5271" width="4.981" height="5.48" transform="translate(-1.731 -1.731)" fill="#0074c2" />
      </g>
    </g>
    <g id="Group_2319" transform="translate(94.729 388.431)">
      <g id="Group_2318" transform="translate(0 0)" clip-path="url(#clip-path-50)">
        <rect id="Rectangle_5272" width="5.422" height="5.488" transform="translate(-1.731 -1.73)" fill="#0074c2" />
      </g>
    </g>
    <g id="Group_2321" transform="translate(97.684 388.574)">
      <g id="Group_2320" transform="translate(0 0)" clip-path="url(#clip-path-51)">
        <rect id="Rectangle_5273" width="5.355" height="5.548" transform="translate(-1.731 -1.73)" fill="#0074c2" />
      </g>
    </g>
    <g id="Group_2323" transform="translate(100.461 388.867)">
      <g id="Group_2322" transform="translate(0 0)" clip-path="url(#clip-path-52)">
        <rect id="Rectangle_5274" width="5.237" height="5.649" transform="translate(-1.73 -1.73)" fill="#0074c2" />
      </g>
    </g>
    <g id="Group_2325" transform="translate(103.075 389.315)">
      <g id="Group_2324" transform="translate(0)" clip-path="url(#clip-path-53)">
        <rect id="Rectangle_5275" width="5.305" height="5.72" transform="translate(-1.731 -1.731)" fill="#0074c2" />
      </g>
    </g>
    <g id="Group_2327" transform="translate(105.617 389.908)">
      <g id="Group_2326" transform="translate(0 0)" clip-path="url(#clip-path-54)">
        <rect id="Rectangle_5276" width="4.355" height="5.476" transform="translate(-1.731 -1.731)" fill="#0074c2" />
      </g>
    </g>
    <g id="Group_2329" transform="translate(107.096 390.405)">
      <g id="Group_2328" transform="translate(0 0)" clip-path="url(#clip-path-55)">
        <rect id="Rectangle_5277" width="5.242" height="5.571" transform="translate(-1.731 -1.731)" fill="#0074c2" />
      </g>
    </g>
    <g id="Group_2331" transform="translate(86.337 365.698)">
      <g id="Group_2330" transform="translate(0 0)" clip-path="url(#clip-path-56)">
        <rect id="Rectangle_5278" width="19.358" height="22.566" transform="translate(-1.731 -1.731)" fill="#0074c2" />
      </g>
    </g>
    <g id="Group_2333" transform="translate(86.798 366.159)">
      <g id="Group_2332" transform="translate(0 0)" clip-path="url(#clip-path-57)">
        <rect id="Rectangle_5279" width="18.438" height="21.644" transform="translate(-1.731 -1.73)" fill="#0074c2" />
      </g>
    </g>
    <g id="Group_2335" transform="translate(93.389 354.997)">
      <g id="Group_2334" transform="translate(0 0)" clip-path="url(#clip-path-58)">
        <rect id="Rectangle_5280" width="5.138" height="5.138" transform="translate(-1.73 -1.731)" fill="#0074c2" />
      </g>
    </g>
    <g id="Group_2344" transform="translate(64.229 353.113)">
      <g id="Group_2343" transform="translate(0)" clip-path="url(#clip-path-59)">
        <g id="Group_2342" transform="translate(0)">
          <g id="Group_2341">
            <g id="Group_2340" clip-path="url(#clip-path-60)">
              <g id="Group_2339" transform="translate(0 0)">
                <g id="Group_2338" clip-path="url(#clip-path-61)">
                  <g id="Group_2337" transform="translate(0 0)">
                    <g id="Group_2336" clip-path="url(#clip-path-60)">
                      <rect id="Rectangle_5281" width="63.465" height="47.324" transform="translate(-1.731 -1.731)" fill="#0074c2" />
                    </g>
                  </g>
                </g>
              </g>
            </g>
          </g>
        </g>
      </g>
    </g>
    <g id="Group_2346" transform="translate(108.466 358.239)">
      <g id="Group_2345" transform="translate(0 0)" clip-path="url(#clip-path-63)">
        <rect id="Rectangle_5285" width="5.003" height="4.226" transform="translate(-1.73 -1.731)" fill="#0074c2" />
      </g>
    </g>
    <g id="Group_2348" transform="translate(77.707 359.663)">
      <g id="Group_2347" transform="translate(0)" clip-path="url(#clip-path-64)">
        <rect id="Rectangle_5286" width="4.674" height="4.154" transform="translate(-1.731 -1.731)" fill="#0074c2" />
      </g>
    </g>
  </g>
</svg>